<?xml version="1.0" standalone="no"?>
  <!DOCTYPE svg PUBLIC "-//W3C//DTD SVG 1.1//EN" "http://www.w3.org/Graphics/SVG/1.1/DTD/svg11.dtd" >
  <svg>
  <metadata>
  Created by font-carrier
  </metadata>
  <defs>
  <font id="PlayfairDisplay-Bold" horiz-adv-x="1281" vert-adv-y="1281" >
    <font-face
      
      font-family="PlayfairDisplay-Bold"
      
      font-weight="400"
      
      font-stretch="normal"
      
      units-per-em="1000"
      
      ascent="1082"
      
      descent="-251"
      
    />
      <missing-glyph />

      

      
      <glyph glyph-name="uni21" unicode="&#x21;" d="M144 782Q176 782 201 756.50Q226 731 226 684Q226 641 216 587Q206 533 192 470.50Q178 408 167 339Q156 270 153 196L153 196L135 196Q133 270 121.50 339Q110 408 96.50 470.50Q83 533 72.50 587Q62 641 62 684Q62 731 85.50 756.50Q109 782 144 782M144 140Q183 140 206 119.50Q229 99 229 63Q229 27 206 6.50Q183-14 144-14Q105-14 82 6.50Q59 27 59 63Q59 99 82 119.50Q105 140 144 140Z"  horiz-adv-x="288" vert-adv-y="1000"  />

      
      <glyph glyph-name="uni22" unicode="&#x22;" d="M105 730Q132 730 150 712.50Q168 695 168 664Q168 634 159.50 608Q151 582 138.50 550Q126 518 112 468L98 468Q85 516 71.50 548Q58 580 50 606.50Q42 633 42 663Q42 694 60 712Q78 730 105 730M266 730Q293 730 311 712.50Q329 695 329 664Q329 634 320.50 608Q312 582 299.50 550Q287 518 273 468L259 468Q246 516 232.50 548Q219 580 211 606.50Q203 633 203 663Q203 694 221 712Q239 730 266 730Z"  horiz-adv-x="369" vert-adv-y="1000"  />

      
      <glyph glyph-name="uni23" unicode="&#x23;" d="M463 602L366 101L346 101L443 602L463 602M545 267L541 247L40 247L44 267L545 267M276 602L179 101L159 101L256 602L276 602M581 454L578 434L77 434L80 454L581 454Z"  horiz-adv-x="620" vert-adv-y="1000"  />

      
      <glyph glyph-name="uni24" unicode="&#x24;" d="M279 721Q338 721 370 708.50Q402 696 425 682Q437 675 444.50 671.50Q452 668 459 668Q469 668 473.50 679Q478 690 481 712L504 712Q503 693 501.50 666.50Q500 640 499.50 597Q499 554 499 484L476 484Q469 546 449.50 594.50Q430 643 393 671Q356 699 295 699Q235 699 205 672.50Q175 646 175 605Q175 582 182.50 562.50Q190 543 210.50 522Q231 501 269.50 473Q308 445 369 406Q417 376 455 344.50Q493 313 515.50 274Q538 235 538 181Q538 115 504 72Q470 29 413.50 7.50Q357-14 290-14Q228-14 193-1Q158 12 137 22Q124 29 114 33Q104 37 95 37Q85 37 80.50 26Q76 15 73-7L50-7Q52 17 52.50 49Q53 81 53.50 132.50Q54 184 54 263L77 263Q82 195 96 146.50Q110 98 134.50 67.50Q159 37 196.50 22.50Q234 8 286 8Q333 8 362.50 20.50Q392 33 406.50 56Q421 79 421 111Q421 132 414 151Q407 170 387 190.50Q367 211 330 239Q293 267 233 308Q186 338 145 370Q104 402 79.50 442.50Q55 483 55 538Q55 601 86.50 641.50Q118 682 169.50 701.50Q221 721 279 721M256 840L256-132L236-132L236 840L256 840M353 840L353-132L333-132L333 840L353 840Z"  horiz-adv-x="574" vert-adv-y="1000"  />

      
      <glyph glyph-name="uni25" unicode="&#x25;" d="M196 761Q268 761 313 718Q358 675 358 598Q358 548 337 510Q316 472 279.50 451Q243 430 196 430Q124 430 78.50 473Q33 516 33 593Q33 643 54.50 681Q76 719 112.50 740Q149 761 196 761M530 299Q498 299 481.50 261Q465 223 465 150Q465 77 483.50 40.50Q502 4 534 4Q567 4 582.50 42Q598 80 598 152Q598 226 580 262.50Q562 299 530 299M532 317Q604 317 649 274Q694 231 694 154Q694 104 673 66Q652 28 615.50 7Q579-14 532-14Q460-14 414.50 29Q369 72 369 149Q369 199 390.50 237Q412 275 448.50 296Q485 317 532 317M194 743Q162 743 145.50 705Q129 667 129 594Q129 521 147.50 484.50Q166 448 198 448Q231 448 246.50 486Q262 524 262 596Q262 670 244 706.50Q226 743 194 743M652 824L671 811L86-55L67-42L652 824Z"  horiz-adv-x="728" vert-adv-y="1000"  />

      
      <glyph glyph-name="uni26" unicode="&#x26;" d="M330 710Q369 710 393 704.50Q417 699 434 689Q450 682 463.50 671Q477 660 486 644Q495 628 495 608Q495 578 472 560Q449 542 418 542Q388 542 366.50 557Q345 572 345 604Q345 629 363 649.50Q381 670 409 675Q402 683 383.50 688Q365 693 343 693Q291 693 254.50 660.50Q218 628 218 562Q218 539 226 513Q234 487 257 460Q274 464 288.50 466Q303 468 313 468Q331 468 340.50 460.50Q350 453 350 441Q350 432 342 426Q334 420 322 420Q305 420 287 429.50Q269 439 258 446Q211 422 181.50 384.50Q152 347 152 284Q152 218 188 175.50Q224 133 289.50 111.50Q355 90 444 90Q494 90 543 101Q592 112 631.50 134Q671 156 695 188.50Q719 221 719 264Q719 280 714.50 304.50Q710 329 693 353.50Q676 378 637 394L644 403Q698 386 726 339Q754 292 754 231Q754 161 711 105.50Q668 50 590.50 18Q513-14 409-14Q326-14 258.50 3Q191 20 142.50 52.50Q94 85 67.50 131Q41 177 41 235Q41 291 64.50 330.50Q88 370 122 395.50Q156 421 190 435Q224 449 244 454Q213 467 187.50 484.50Q162 502 146.50 526Q131 550 131 580Q131 612 148 636.50Q165 661 193.50 677Q222 693 257.50 701.50Q293 710 330 710M723 722Q794 722 838 685Q882 648 882 581Q882 530 857.50 495Q833 460 787.50 438Q742 416 679 403Q665 398 644 391.50Q623 385 601 379Q579 373 558.50 367Q538 361 523 357Q445 340 403 318.50Q361 297 361 260Q361 235 377.50 217Q394 199 419 189Q444 179 469 179Q476 179 484 180.50Q492 182 499 184.50Q506 187 509 189Q484 197 471.50 214.50Q459 232 459 255Q459 287 482 304Q505 321 539 321Q575 321 595.50 302Q616 283 616 253Q616 222 597 201.50Q578 181 546 171.50Q514 162 474 162Q435 162 400.50 176Q366 190 345.50 218.50Q325 247 325 290Q325 343 352 378.50Q379 414 429.50 437.50Q480 461 549 474Q570 479 595.50 485.50Q621 492 648 499Q675 506 698 514Q770 532 809.50 554Q849 576 849 613Q849 640 832.50 660.50Q816 681 790 692.50Q764 704 736 704Q727 704 719.50 703Q712 702 707 699Q732 690 744 672Q756 654 756 636Q756 605 733 588.50Q710 572 676 572Q642 572 620 589.50Q598 607 598 638Q598 665 613.50 683.50Q629 702 657 712Q685 722 723 722Z"  horiz-adv-x="898" vert-adv-y="1000"  />

      
      <glyph glyph-name="uni27" unicode="&#x27;" d="M105 730Q132 730 150 712.50Q168 695 168 664Q168 634 159.50 608Q151 582 138.50 550Q126 518 112 468L98 468Q85 516 71.50 548Q58 580 50 606.50Q42 633 42 663Q42 694 60 712Q78 730 105 730Z"  horiz-adv-x="209" vert-adv-y="1000"  />

      
      <glyph glyph-name="uni28" unicode="&#x28;" d="M285 806L300 794Q233 690 203 574Q173 458 173 312Q173 167 203 52Q233-63 300-170L285-182Q166-94 100.50 27Q35 148 35 312Q35 476 100.50 597Q166 718 285 806Z"  horiz-adv-x="318" vert-adv-y="1000"  />

      
      <glyph glyph-name="uni29" unicode="&#x29;" d="M33 806Q152 718 217.50 597Q283 476 283 312Q283 148 217.50 27Q152-94 33-182L18-170Q86-63 115.50 52Q145 167 145 312Q145 458 115 574Q85 690 18 794L33 806Z"  horiz-adv-x="318" vert-adv-y="1000"  />

      
      <glyph glyph-name="uni2a" unicode="&#x2a;" d="M352 639Q378 654 396 646.50Q414 639 423 624Q432 608 429.50 589Q427 570 401 555Q376 541 337.50 535.50Q299 530 241 517L240 520Q277 562 302.50 593.50Q328 625 352 639M242 520Q296 508 336.50 502Q377 496 401 482Q427 467 430 447.50Q433 428 423 413Q415 397 397 390Q379 383 353 398Q328 412 304 442.50Q280 473 240 517L242 520M243 518Q260 465 275 427.50Q290 390 290 361Q290 331 274 319Q258 307 241 307Q222 307 207.50 319Q193 331 193 361Q193 390 207 426Q221 462 240 517L243 518M240 518L242 516Q204 475 179 443Q154 411 130 397Q104 382 85.50 389.50Q67 397 58 412Q49 428 52 447Q55 466 81 481Q106 495 144 501Q182 507 240 518M129 638Q154 624 178 593.50Q202 563 241 519L240 516Q185 528 145 534Q105 540 80 554Q55 569 52 588.50Q49 608 58 623Q67 639 85 646Q103 653 129 638M241 729Q259 729 274 717Q289 705 289 675Q289 647 274.50 610.50Q260 574 242 518L239 518Q221 571 206.50 609Q192 647 192 675Q192 705 207.50 717Q223 729 241 729Z"  horiz-adv-x="481" vert-adv-y="1000"  />

      
      <glyph glyph-name="uni2b" unicode="&#x2b;" d="M305 606L305 370L537 370L537 340L305 340L305 105L269 105L269 340L36 340L36 370L269 370L269 606L305 606Z"  horiz-adv-x="574" vert-adv-y="1000"  />

      
      <glyph glyph-name="uni2c" unicode="&#x2c;" d="M131 140Q156 140 174 131Q192 122 202 105Q213 91 218.50 68Q224 45 224 22Q224-28 198.50-70.50Q173-113 119-138L110-120Q138-108 160-83Q182-58 186-32Q191-10 186 10Q164-14 128-14Q93-14 71 6.50Q49 27 49 63Q49 98 72.50 119Q96 140 131 140Z"  horiz-adv-x="271" vert-adv-y="1000"  />

      
      <glyph glyph-name="uni2d" unicode="&#x2d;" d="M421 312L421 229L60 229L60 312L421 312Z"  horiz-adv-x="481" vert-adv-y="1000"  />

      
      <glyph glyph-name="uni2e" unicode="&#x2e;" d="M135 140Q174 140 197 119.50Q220 99 220 63Q220 27 197 6.50Q174-14 135-14Q96-14 73 6.50Q50 27 50 63Q50 99 73 119.50Q96 140 135 140Z"  horiz-adv-x="270" vert-adv-y="1000"  />

      
      <glyph glyph-name="uni2f" unicode="&#x2f;" d="M337 722L65-14L32-14L304 722L337 722Z"  horiz-adv-x="368" vert-adv-y="1000"  />

      
      <glyph glyph-name="uni30" unicode="&#x30;" d="M328 531Q408 531 469 498.50Q530 466 565 406.50Q600 347 600 267Q600 187 564.50 123.50Q529 60 465.50 23Q402-14 317-14Q239-14 177.50 19Q116 52 80.50 111.50Q45 171 45 251Q45 330 80 393.50Q115 457 179 494Q243 531 328 531M319 513Q265 513 230.50 444.50Q196 376 196 254Q196 164 214 109Q232 54 261.50 29Q291 4 326 4Q380 4 414.50 73Q449 142 449 264Q449 354 431 409Q413 464 383.50 488.50Q354 513 319 513Z"  horiz-adv-x="645" vert-adv-y="1000"  />

      
      <glyph glyph-name="uni31" unicode="&#x31;" d="M282 528L282 97Q282 53 298.50 37Q315 21 354 21L354 0Q334 1 295.50 2.50Q257 4 216 4Q165 4 117.50 2.50Q70 1 44 0L44 21Q89 21 113.50 37.50Q138 54 138 103L138 347Q138 395 130 418Q122 441 100 448Q78 455 40 455L40 477Q126 479 182.50 490Q239 501 282 528Z"  horiz-adv-x="383" vert-adv-y="1000"  />

      
      <glyph glyph-name="uni32" unicode="&#x32;" d="M275 531Q352 531 397 498Q442 465 442 404Q442 365 422.50 333Q403 301 371 272.50Q339 244 302.50 219Q266 194 232 169.50Q198 145 174 119L390 119Q431 119 442 129Q453 139 457 164L478 164Q478 97 479 60Q480 23 482-5Q473-3 449-2Q425-1 394-0.50Q363 0 333 0L42 0L42 19Q70 49 111 85Q152 121 191.50 165Q231 209 258 260.50Q285 312 285 371Q285 425 261 449Q237 473 192 473Q149 473 116.50 453.50Q84 434 58 396L41 406Q61 440 91.50 468.50Q122 497 167 514Q212 531 275 531Z"  horiz-adv-x="523" vert-adv-y="1000"  />

      
      <glyph glyph-name="uni33" unicode="&#x33;" d="M246 531Q295 531 334 517.50Q373 504 395 478.50Q417 453 417 416Q417 378 392.50 345Q368 312 322.50 287.50Q277 263 214 251Q282 254 336 237Q390 220 421.50 185.50Q453 151 453 99Q453 53 428.50 14Q404-25 361-55.50Q318-86 263.50-107.50Q209-129 149-140Q89-151 29-151L29-131Q76-130 124.50-114.50Q173-99 213.50-70.50Q254-42 279 0.50Q304 43 304 98Q304 157 276 195Q248 233 199 237Q184 230 172 225.50Q160 221 148 221Q139 221 134 224Q129 227 129 235Q129 247 139 252Q149 257 161 257Q169 257 177.50 255.50Q186 254 196 253Q239 283 256 317.50Q273 352 273 387Q273 432 249.50 453.50Q226 475 184 475Q145 475 111 455.50Q77 436 54 397L36 406Q54 439 81 467.50Q108 496 148 513.50Q188 531 246 531Z"  horiz-adv-x="488" vert-adv-y="1000"  />

      
      <glyph glyph-name="uni34" unicode="&#x34;" d="M381 531L385 505L73 105L87 139L405 139Q446 139 457 149Q468 159 472 184L493 184Q493 124 494 90.50Q495 57 497 31Q490 33 471 33.50Q452 34 426 35Q400 36 373.50 36Q347 36 324 36L8 36L8 57L381 531M397 531L397-141L281-141L281 390L381 531L397 531Z"  horiz-adv-x="528" vert-adv-y="1000"  />

      
      <glyph glyph-name="uni35" unicode="&#x35;" d="M385 555Q385 489 386 452.50Q387 416 389 387Q381 389 358.50 390Q336 391 307 391.50Q278 392 250 392L96 392L80 221Q104 238 141.50 249.50Q179 261 231 261Q298 261 341 240Q384 219 405 183Q426 147 426 103Q426 45 391.50-1Q357-47 299-80Q241-113 171-130.50Q101-148 30-148L30-130Q76-130 120.50-115Q165-100 200-71Q235-42 256 0Q277 42 277 97Q277 159 248 193Q219 227 162 227Q133 227 112.50 219.50Q92 212 72 198L58 207L90 520Q101 518 115.50 517Q130 516 144 516L309 516Q338 516 349.50 525Q361 534 364 555L385 555Z"  horiz-adv-x="459" vert-adv-y="1000"  />

      
      <glyph glyph-name="uni36" unicode="&#x36;" d="M446 723L450 703Q414 691 378 674Q342 657 309.50 627Q277 597 252 550.50Q227 504 212.50 434Q198 364 198 265Q198 166 212.50 109.50Q227 53 249 29.50Q271 6 292 6Q315 6 335 27Q355 48 367.50 94Q380 140 380 215Q380 287 368.50 330Q357 373 338 392Q319 411 295 411Q278 411 257 401Q236 391 218 369Q200 347 192 307L183 311Q189 359 212.50 387.50Q236 416 269 428Q302 440 335 440Q389 440 433 414Q477 388 504 340Q531 292 531 224Q531 147 497 94Q463 41 406 13.50Q349-14 282-14Q172-14 109.50 60.50Q47 135 47 271Q47 361 73 431Q99 501 142 552.50Q185 604 237.50 639Q290 674 344.50 694.50Q399 715 446 723Z"  horiz-adv-x="561" vert-adv-y="1000"  />

      
      <glyph glyph-name="uni37" unicode="&#x37;" d="M23 521Q32 519 56 518Q80 517 111 516.50Q142 516 172 516L454 516L454 495Q435 450 405.50 398.50Q376 347 346.50 286.50Q317 226 297.50 156.50Q278 87 278 6Q278 0 279.50-16Q281-32 282-48.50Q283-65 283-75Q283-103 265-125.50Q247-148 210-148Q173-148 155-123Q137-98 137-60Q137-5 157 49Q177 103 209 155.50Q241 208 278 258Q315 308 350.50 354Q386 400 412 441L389 395L115 395Q74 395 63 385Q52 375 48 350L27 350Q27 416 26 454.50Q25 493 23 521Z"  horiz-adv-x="455" vert-adv-y="1000"  />

      
      <glyph glyph-name="uni38" unicode="&#x38;" d="M288 722Q345 722 389.50 704.50Q434 687 459 656Q484 625 484 582Q484 528 444.50 488.50Q405 449 335 414L327 428Q343 448 352 473Q361 498 364.50 525Q368 552 368 574Q368 635 344.50 669.50Q321 704 280 704Q246 704 227 681Q208 658 208 621Q208 578 230.50 541Q253 504 288.50 471Q324 438 364 405Q404 372 439.50 337Q475 302 497.50 262.50Q520 223 520 175Q520 119 488 77Q456 35 401 10.50Q346-14 275-14Q213-14 160 5Q107 24 75 62.50Q43 101 43 157Q43 205 66 242.50Q89 280 128.50 308Q168 336 217 356L225 342Q192 309 179.50 265Q167 221 167 175Q167 129 177.50 90Q188 51 213 27.50Q238 4 280 4Q328 4 354.50 34Q381 64 381 112Q381 158 359 195.50Q337 233 302.50 266.50Q268 300 228.50 332Q189 364 154.50 397.50Q120 431 98 470.50Q76 510 76 559Q76 614 105.50 650Q135 686 183.50 704Q232 722 288 722Z"  horiz-adv-x="561" vert-adv-y="1000"  />

      
      <glyph glyph-name="uni39" unicode="&#x39;" d="M278 531Q387 531 450 459Q513 387 513 255Q513 175 487.50 111.50Q462 48 419.50 1.50Q377-45 325.50-76.50Q274-108 220.50-126.50Q167-145 120-152L116-132Q160-119 203.50-97Q247-75 282.50-33.50Q318 8 340 79Q362 150 362 260Q362 357 347.50 411.50Q333 466 311.50 488.50Q290 511 267 511Q245 511 225 490.50Q205 470 192.50 424Q180 378 180 302Q180 231 191.50 187.50Q203 144 222.50 125Q242 106 265 106Q282 106 303 116Q324 126 342 149Q360 172 368 210L377 206Q371 158 347.50 130Q324 102 291 89.50Q258 77 225 77Q172 77 127.50 103Q83 129 56 177.50Q29 226 29 294Q29 371 63.50 424Q98 477 154.50 504Q211 531 278 531Z"  horiz-adv-x="553" vert-adv-y="1000"  />

      
      <glyph glyph-name="uni3a" unicode="&#x3a;" d="M145 531Q184 531 207 510.50Q230 490 230 454Q230 418 207 397.50Q184 377 145 377Q106 377 83 397.50Q60 418 60 454Q60 490 83 510.50Q106 531 145 531M145 140Q184 140 207 119.50Q230 99 230 63Q230 27 207 6.50Q184-14 145-14Q106-14 83 6.50Q60 27 60 63Q60 99 83 119.50Q106 140 145 140Z"  horiz-adv-x="290" vert-adv-y="1000"  />

      
      <glyph glyph-name="uni3b" unicode="&#x3b;" d="M143 140Q168 140 186 131Q204 122 214 105Q225 91 230.50 68Q236 45 236 22Q236-28 210.50-70.50Q185-113 131-138L122-120Q150-108 172-83Q194-58 198-32Q203-10 198 10Q176-14 140-14Q105-14 83 6.50Q61 27 61 63Q61 98 84.50 119Q108 140 143 140M149 531Q188 531 211 510.50Q234 490 234 454Q234 418 211 397.50Q188 377 149 377Q110 377 87 397.50Q64 418 64 454Q64 490 87 510.50Q110 531 149 531Z"  horiz-adv-x="296" vert-adv-y="1000"  />

      
      <glyph glyph-name="uni3c" unicode="&#x3c;" d="M515 582L532 546L123 355L532 164L515 128L28 355L515 582Z"  horiz-adv-x="602" vert-adv-y="1000"  />

      
      <glyph glyph-name="uni3d" unicode="&#x3d;" d="M568 440L568 410L67 410L67 440L568 440M568 300L568 270L67 270L67 300L568 300Z"  horiz-adv-x="635" vert-adv-y="1000"  />

      
      <glyph glyph-name="uni3e" unicode="&#x3e;" d="M87 582L574 355L87 128L70 164L479 355L70 546L87 582Z"  horiz-adv-x="602" vert-adv-y="1000"  />

      
      <glyph glyph-name="uni3f" unicode="&#x3f;" d="M237 782Q309 782 362.50 760.50Q416 739 446.50 698.50Q477 658 477 602Q477 546 444.50 502Q412 458 355 427.50Q298 397 222 380L222 234L202 234L202 389Q258 414 286 444Q314 474 324 509Q334 544 334 583Q334 678 299.50 720Q265 762 211 762Q184 762 160.50 756Q137 750 124 736Q151 727 165.50 709.50Q180 692 180 663Q180 632 158 611.50Q136 591 101 591Q69 591 49.50 611.50Q30 632 30 660Q30 691 46.50 711.50Q63 732 87 747Q111 761 148.50 771.50Q186 782 237 782M213 140Q252 140 275 119.50Q298 99 298 63Q298 27 275 6.50Q252-14 213-14Q174-14 151 6.50Q128 27 128 63Q128 99 151 119.50Q174 140 213 140Z"  horiz-adv-x="508" vert-adv-y="1000"  />

      
      <glyph glyph-name="uni40" unicode="&#x40;" d="M534 668Q623 668 695 640Q767 612 809.50 551.50Q852 491 852 393Q852 309 824.50 241Q797 173 752.50 125Q708 77 656 51.50Q604 26 556 26Q517 26 499 40.50Q481 55 478 77.50Q475 100 480 124Q485 148 490 167L551 464Q582 464 615.50 467Q649 470 677 478L598 117Q593 96 592.50 81Q592 66 599 60.50Q606 55 622 60Q653 69 689 95Q725 121 757.50 163Q790 205 811 263Q832 321 832 394Q832 487 791 543Q750 599 682.50 624.50Q615 650 535 650Q461 650 391 624Q321 598 262 550.50Q203 503 158.50 439.50Q114 376 89.50 301Q65 226 65 145Q65 42 105-21.50Q145-85 214-114Q283-143 371-143Q425-143 476.50-130.50Q528-118 577-89L584-102Q547-128 492-144.50Q437-161 370-161Q275-161 202-129Q129-97 87-30Q45 37 45 143Q45 224 69 300.50Q93 377 138 443.50Q183 510 244 560.50Q305 611 378.50 639.50Q452 668 534 668M464 478Q495 478 513.50 463.50Q532 449 539.50 425Q547 401 543 374L533 367Q535 384 531.50 401.50Q528 419 517 431Q506 443 489 443Q464 443 440 418.50Q416 394 396.50 352.50Q377 311 365 260.50Q353 210 353 157Q353 111 364 92.50Q375 74 394 74Q427 74 456 119Q485 164 508 245L513 228Q494 154 468 109.50Q442 65 410.50 45.50Q379 26 341 26Q306 26 279.50 40.50Q253 55 239 84Q225 113 225 156Q225 209 244.50 265.50Q264 322 297.50 370Q331 418 374 448Q417 478 464 478Z"  horiz-adv-x="884" vert-adv-y="1000"  />

      
      <glyph glyph-name="uni41" unicode="&#x41;" d="M368 710L611 84Q625 48 642.50 34.50Q660 21 674 20L674 0Q644 2 603.50 2.50Q563 3 522 3Q476 3 435 2.50Q394 2 370 0L370 20Q421 22 434.50 37.50Q448 53 428 104L258 569L276 595L124 199Q102 144 97.50 109Q93 74 102.50 55Q112 36 133.50 28.50Q155 21 185 20L185 0Q152 2 122 2.50Q92 3 61 3Q39 3 19.50 2.50Q0 2-15 0L-15 20Q6 24 28 47Q50 70 71 125L299 710Q315 709 333.50 709Q352 709 368 710M438 288L438 268L140 268L150 288L438 288Z"  horiz-adv-x="667" vert-adv-y="1000"  />

      
      <glyph glyph-name="uni42" unicode="&#x42;" d="M34 708Q60 707 102 706Q144 705 186 705Q234 705 279 706Q324 707 343 707Q467 707 528.50 663Q590 619 590 550Q590 515 569 479Q548 443 504 415Q460 387 390 374L390 372Q484 365 539 338Q594 311 618 273Q642 235 642 194Q642 131 609 88Q576 45 514 22.50Q452 0 366 0Q342 0 297 1.50Q252 3 188 3Q144 3 102 2.50Q60 2 34 0L34 20Q66 22 82 28Q98 34 103.50 52Q109 70 109 106L109 602Q109 639 103.50 656.50Q98 674 81.50 680.50Q65 687 34 688L34 708M330 688Q291 688 279.50 671Q268 654 268 602L268 106Q268 71 273.50 53Q279 35 293.50 29Q308 23 337 23Q409 23 442.50 68.50Q476 114 476 198Q476 275 437.50 317Q399 359 310 359L225 359Q225 359 225 367.50Q225 376 225 376L311 376Q358 376 383 398.50Q408 421 418 458.50Q428 496 428 539Q428 613 405 650.50Q382 688 330 688Z"  horiz-adv-x="672" vert-adv-y="1000"  />

      
      <glyph glyph-name="uni43" unicode="&#x43;" d="M397 722Q463 722 505.50 702.50Q548 683 581 657Q601 642 611.50 653.50Q622 665 626 708L649 708Q647 669 646 613.50Q645 558 645 466L622 466Q617 512 609 544.50Q601 577 587 602Q573 627 547 647Q522 672 489 684Q456 696 420 696Q366 696 328 667.50Q290 639 266.50 590Q243 541 232 479.50Q221 418 221 352Q221 285 232.50 223.50Q244 162 268.50 114Q293 66 332 38Q371 10 424 10Q457 10 490.50 22.50Q524 35 548 59Q587 89 601 133.50Q615 178 622 252L645 252Q645 157 646 98.50Q647 40 649 0L626 0Q622 43 612.50 54Q603 65 581 51Q544 25 502.50 5.50Q461-14 396-14Q290-14 210.50 29Q131 72 87 153Q43 234 43 348Q43 460 88.50 544Q134 628 213.50 675Q293 722 397 722Z"  horiz-adv-x="705" vert-adv-y="1000"  />

      
      <glyph glyph-name="uni44" unicode="&#x44;" d="M343 708Q540 708 636 618.50Q732 529 732 362Q732 253 685 171.50Q638 90 548.50 45Q459 0 334 0Q318 0 292 1Q266 2 238 2.50Q210 3 188 3Q144 3 101.50 2.50Q59 2 34 0L34 20Q66 22 82 28Q98 34 103.50 52Q109 70 109 106L109 602Q109 639 103.50 656.50Q98 674 81.50 680.50Q65 687 34 688L34 708Q59 707 101.50 705.50Q144 704 186 705Q222 706 267.50 707Q313 708 343 708M342 690Q296 690 282 673Q268 656 268 604L268 104Q268 52 282.50 35Q297 18 343 18Q427 18 475.50 57.50Q524 97 545 173Q566 249 566 358Q566 470 543.50 543.50Q521 617 472 653.50Q423 690 342 690Z"  horiz-adv-x="776" vert-adv-y="1000"  />

      
      <glyph glyph-name="uni45" unicode="&#x45;" d="M569 708Q565 664 563.50 623Q562 582 562 560Q562 540 563 522Q564 504 565 492L542 492Q532 565 511 607.50Q490 650 456.50 667.50Q423 685 378 685L337 685Q308 685 293 680Q278 675 273 660Q268 645 268 614L268 94Q268 63 273 48Q278 33 293 28Q308 23 337 23L386 23Q431 23 465.50 42.50Q500 62 524.50 109Q549 156 562 236L585 236Q582 204 582 152Q582 129 583 87Q584 45 589 0Q538 2 474 2.50Q410 3 360 3Q335 3 296 3Q257 3 212 2.50Q167 2 121 1.50Q75 1 34 0L34 20Q66 22 82 28Q98 34 103.50 52Q109 70 109 106L109 602Q109 639 103.50 656.50Q98 674 81.50 680.50Q65 687 34 688L34 708Q75 707 121 706.50Q167 706 212 705.50Q257 705 296 705Q335 705 360 705Q406 705 464.50 705.50Q523 706 569 708M413 366Q413 366 413 356Q413 346 413 346L238 346Q238 346 238 356Q238 366 238 366L413 366M442 498Q438 441 438.50 411Q439 381 439 356Q439 331 440 301Q441 271 445 214L422 214Q417 249 403.50 279Q390 309 365 327.50Q340 346 300 346L300 366Q330 366 351 378.50Q372 391 385.50 411.50Q399 432 407 455Q415 478 419 498L442 498Z"  horiz-adv-x="634" vert-adv-y="1000"  />

      
      <glyph glyph-name="uni46" unicode="&#x46;" d="M569 708Q565 663 563.50 621Q562 579 562 556Q562 534 563 514Q564 494 565 480L542 480Q529 558 506 602.50Q483 647 449.50 666Q416 685 370 685L337 685Q308 685 293 680Q278 675 273 660Q268 645 268 614L268 112Q268 73 276 54Q284 35 307 29Q330 23 375 22L375 0Q344 1 295 2Q246 3 192 3Q149 3 108 2Q67 1 34 0L34 20Q66 22 82 28Q98 34 103.50 52Q109 70 109 106L109 602Q109 639 103.50 656.50Q98 674 81.50 680.50Q65 687 34 688L34 708Q75 707 121 706.50Q167 706 212 705.50Q257 705 296 705Q335 705 360 705Q406 705 464.50 705.50Q523 706 569 708M420 362Q420 362 420 352Q420 342 420 342L238 342Q238 342 238 352Q238 362 238 362L420 362M445 494Q441 437 441.50 407Q442 377 442 352Q442 327 443 297Q444 267 448 210L425 210Q419 245 406 275Q393 305 368 323.50Q343 342 303 342L303 362Q333 362 353.50 374.50Q374 387 388 407.50Q402 428 410 451Q418 474 422 494L445 494Z"  horiz-adv-x="592" vert-adv-y="1000"  />

      
      <glyph glyph-name="uni47" unicode="&#x47;" d="M405 722Q473 722 516 703Q559 684 593 657Q605 648 613 648Q632 648 638 708L661 708Q659 669 658 613.50Q657 558 657 466L634 466Q627 526 612.50 570.50Q598 615 559 647Q535 670 499.50 683Q464 696 428 696Q373 696 334 667.50Q295 639 270 590Q245 541 233 479.50Q221 418 221 352Q221 172 270.50 89Q320 6 413 6Q437 6 455 12Q473 18 484 26Q498 36 503 47.50Q508 59 508 78L508 176Q508 222 500.50 244.50Q493 267 471 275Q449 283 407 284L407 304Q428 303 457.50 302.50Q487 302 519 301.50Q551 301 578 301Q620 301 655 302Q690 303 712 304L712 284Q693 283 683.50 277Q674 271 670.50 253Q667 235 667 198L667 0L647 0Q646 17 639.50 37Q633 57 618 57Q611 57 599.50 53.50Q588 50 564 36Q527 15 486 0.50Q445-14 400-14Q284-14 204 29Q124 72 83.50 152.50Q43 233 43 346Q43 460 89.50 544Q136 628 217.50 675Q299 722 405 722Z"  horiz-adv-x="735" vert-adv-y="1000"  />

      
      <glyph glyph-name="uni48" unicode="&#x48;" d="M458 0L458 20Q490 22 506 28Q522 34 527.50 52Q533 70 533 106L533 602Q533 639 527.50 656.50Q522 674 505.50 680.50Q489 687 458 688L458 708Q485 707 528.50 706Q572 705 615 705Q661 705 701.50 706Q742 707 767 708L767 688Q735 687 718.50 680.50Q702 674 697 656.50Q692 639 692 602L692 106Q692 70 697.50 52Q703 34 719 28Q735 22 767 20L767 0Q742 2 701.50 2.50Q661 3 615 3Q572 3 528.50 2.50Q485 2 458 0M34 0L34 20Q66 22 82 28Q98 34 103.50 52Q109 70 109 106L109 602Q109 639 103.50 656.50Q98 674 81.50 680.50Q65 687 34 688L34 708Q60 707 101.50 706Q143 705 192 705Q234 705 275 706Q316 707 343 708L343 688Q311 687 294.50 680.50Q278 674 273 656.50Q268 639 268 602L268 106Q268 70 273.50 52Q279 34 295 28Q311 22 343 20L343 0Q316 2 275 2.50Q234 3 192 3Q143 3 101.50 2.50Q60 2 34 0M203 346L203 366L598 366L598 346L203 346Z"  horiz-adv-x="800" vert-adv-y="1000"  />

      
      <glyph glyph-name="uni49" unicode="&#x49;" d="M343 708L343 688Q311 687 294.50 680.50Q278 674 273 656.50Q268 639 268 602L268 106Q268 70 273.50 52Q279 34 295 28Q311 22 343 20L343 0Q316 2 275 2.50Q234 3 192 3Q143 3 101.50 2.50Q60 2 34 0L34 20Q66 22 82 28Q98 34 103.50 52Q109 70 109 106L109 602Q109 639 103.50 656.50Q98 674 81.50 680.50Q65 687 34 688L34 708Q60 707 101.50 706Q143 705 192 705Q234 705 275 706Q316 707 343 708Z"  horiz-adv-x="376" vert-adv-y="1000"  />

      
      <glyph glyph-name="uni4a" unicode="&#x4a;" d="M-23-188L-23-168Q17-164 45-144.50Q73-125 88-78Q103-31 103 54L103 602Q103 639 97.50 656.50Q92 674 76 680.50Q60 687 28 688L28 708Q53 707 93.50 706Q134 705 179 705Q224 705 266.50 706Q309 707 337 708L337 688Q306 687 289.50 680.50Q273 674 267.50 656.50Q262 639 262 602L262 236Q262 195 262 147.50Q262 100 258.50 55Q255 10 245-25Q225-94 158.50-141Q92-188-23-188Z"  horiz-adv-x="364" vert-adv-y="1000"  />

      
      <glyph glyph-name="uni4b" unicode="&#x4b;" d="M689 708L689 689Q657 682 620.50 661Q584 640 544 593L356 369L414 452L652 81Q666 58 682 44Q698 30 724 20L724 0Q689 2 646 2.50Q603 3 568 3Q547 3 517 2.50Q487 2 441 0L441 20Q482 22 490.50 31.50Q499 41 483 65L338 300Q324 323 313 334.50Q302 346 291 350.50Q280 355 262 356L262 377Q306 378 340.50 401Q375 424 416 471L475 542Q513 587 519.50 619.50Q526 652 506.50 670Q487 688 447 689L447 708Q472 707 494.50 706.50Q517 706 541.50 705.50Q566 705 595 705Q624 705 647.50 706Q671 707 689 708M343 708L343 688Q311 687 294.50 680.50Q278 674 273 656.50Q268 639 268 602L268 106Q268 70 273.50 52Q279 34 295 28Q311 22 343 20L343 0Q316 2 275 2.50Q234 3 192 3Q144 3 101.50 2.50Q59 2 34 0L34 20Q66 22 82 28Q98 34 103.50 52Q109 70 109 106L109 602Q109 639 103.50 656.50Q98 674 81.50 680.50Q65 687 34 688L34 708Q59 707 101.50 706Q144 705 192 705Q234 705 275 706Q316 707 343 708Z"  horiz-adv-x="714" vert-adv-y="1000"  />

      
      <glyph glyph-name="uni4c" unicode="&#x4c;" d="M349 708L349 688Q315 687 297.50 680.50Q280 674 274 656.50Q268 639 268 602L268 94Q268 63 272.50 48Q277 33 290.50 28Q304 23 331 23L380 23Q414 23 444 39Q474 55 498 84.50Q522 114 538 155Q554 196 562 246L585 246Q582 212 582 158Q582 135 583 91Q584 47 589 0Q538 2 474 2.50Q410 3 360 3Q335 3 296 3Q257 3 212 2.50Q167 2 121 1.50Q75 1 34 0L34 20Q66 22 82 28Q98 34 103.50 52Q109 70 109 106L109 602Q109 639 103.50 656.50Q98 674 81.50 680.50Q65 687 34 688L34 708Q59 707 101.50 706Q144 705 192 705Q236 705 278.50 706Q321 707 349 708Z"  horiz-adv-x="611" vert-adv-y="1000"  />

      
      <glyph glyph-name="uni4d" unicode="&#x4d;" d="M894 708L894 688Q862 687 846 680.50Q830 674 824.50 656.50Q819 639 819 602L819 106Q819 70 824.50 52Q830 34 846 28Q862 22 894 20L894 0Q866 2 823.50 2.50Q781 3 737 3Q689 3 647 2.50Q605 2 579 0L579 20Q613 22 630.50 28Q648 34 654 52Q660 70 660 106L660 647L667 647L419-1L403-1L133 643L133 164Q133 109 139 79.50Q145 50 165.50 37.50Q186 25 230 20L230 0Q211 2 180 2.50Q149 3 122 3Q99 3 75 2.50Q51 2 35 0L35 20Q67 25 83 37Q99 49 104.50 76.50Q110 104 110 152L110 602Q110 639 104.50 656.50Q99 674 82.50 680.50Q66 687 35 688L35 708Q51 707 75 706Q99 705 122 705Q165 705 206.50 706Q248 707 280 708L490 201L465 178L666 705Q683 705 701 705Q719 705 737 705Q781 705 823.50 706Q866 707 894 708Z"  horiz-adv-x="927" vert-adv-y="1000"  />

      
      <glyph glyph-name="uni4e" unicode="&#x4e;" d="M693 708L693 688Q661 684 645 671.50Q629 659 623.50 632Q618 605 618 556L618-2Q606-1 593.50-1Q581-1 567-2L133 548L133 164Q133 109 139 79.50Q145 50 165.50 37.50Q186 25 230 20L230 0Q211 2 180 2.50Q149 3 122 3Q99 3 75 2.50Q51 2 35 0L35 20Q67 25 83 37Q99 49 104.50 76.50Q110 104 110 152L110 602Q110 639 104.50 656.50Q99 674 82.50 680.50Q66 687 35 688L35 708Q51 707 75 706Q99 705 122 705Q146 705 168 706Q190 707 208 708L595 231L595 544Q595 599 589 628.50Q583 658 562.50 671Q542 684 498 688L498 708Q517 707 548 706Q579 705 606 705Q630 705 653.50 706Q677 707 693 708Z"  horiz-adv-x="722" vert-adv-y="1000"  />

      
      <glyph glyph-name="uni4f" unicode="&#x4f;" d="M397 722Q503 722 582.50 679Q662 636 706 555.50Q750 475 750 360Q750 248 705 164Q660 80 579.50 33Q499-14 396-14Q290-14 210.50 29Q131 72 87 153Q43 234 43 348Q43 460 88.50 544Q134 628 213.50 675Q293 722 397 722M393 704Q337 704 295.50 659Q254 614 231.50 535Q209 456 209 352Q209 246 234.50 167.50Q260 89 303.50 46.50Q347 4 400 4Q456 4 497.50 49Q539 94 561.50 173.50Q584 253 584 356Q584 463 558.50 541Q533 619 489.50 661.50Q446 704 393 704Z"  horiz-adv-x="793" vert-adv-y="1000"  />

      
      <glyph glyph-name="uni50" unicode="&#x50;" d="M34 708Q59 707 101.50 706Q144 705 186 705Q234 705 279 706Q324 707 343 707Q482 707 551 652Q620 597 620 510Q620 474 606 434.50Q592 395 558.50 361.50Q525 328 467 307Q409 286 321 286L219 286L219 306L311 306Q370 306 400.50 333Q431 360 442.50 404Q454 448 454 499Q454 594 426 641Q398 688 330 688Q291 688 279.50 671Q268 654 268 602L268 112Q268 73 276 54Q284 35 307 29Q330 23 375 22L375 0Q344 1 295 2Q246 3 192 3Q149 3 108 2Q67 1 34 0L34 20Q66 22 82 28Q98 34 103.50 52Q109 70 109 106L109 602Q109 639 103.50 656.50Q98 674 81.50 680.50Q65 687 34 688L34 708Z"  horiz-adv-x="641" vert-adv-y="1000"  />

      
      <glyph glyph-name="uni51" unicode="&#x51;" d="M764 12L782 7Q774-48 757-87.50Q740-127 713-149Q692-166 658.50-177Q625-188 584-188Q529-188 476.50-171Q424-154 370-129.50Q316-105 256-82Q249-80 242.50-77.50Q236-75 232-75Q213-84 190.50-90Q168-96 148-96Q128-96 114.50-90Q101-84 101-70Q101-43 156-43Q191-43 232-57Q269-47 295.50-34.50Q322-22 350.50-11Q379 0 420 3L421-13Q389-16 366.50-24.50Q344-33 321-43Q298-53 267-62Q338-67 399-72.50Q460-78 512-79.50Q564-81 606-75Q668-68 704-48Q740-28 764 12M397 722Q503 722 582.50 679Q662 636 706 555.50Q750 475 750 360Q750 248 705 164Q660 80 579.50 33Q499-14 396-14Q290-14 210.50 29Q131 72 87 153Q43 234 43 348Q43 460 88.50 544Q134 628 213.50 675Q293 722 397 722M393 704Q337 704 295.50 659Q254 614 231.50 535Q209 456 209 352Q209 246 234.50 167.50Q260 89 303.50 46.50Q347 4 400 4Q456 4 497.50 49Q539 94 561.50 173.50Q584 253 584 356Q584 463 558.50 541Q533 619 489.50 661.50Q446 704 393 704Z"  horiz-adv-x="793" vert-adv-y="1000"  />

      
      <glyph glyph-name="uni52" unicode="&#x52;" d="M34 708Q59 707 101.50 706Q144 705 186 705Q234 705 279 706Q324 707 343 707Q436 707 497.50 686.50Q559 666 589.50 627Q620 588 620 533Q620 499 606 464.50Q592 430 558.50 400.50Q525 371 467 353.50Q409 336 321 336L225 336L225 356L311 356Q370 356 400.50 378.50Q431 401 442.50 438.50Q454 476 454 522Q454 601 426 644.50Q398 688 330 688Q291 688 279.50 671Q268 654 268 602L268 106Q268 70 273.50 52Q279 34 295 28Q311 22 343 20L343 0Q316 2 275 2.50Q234 3 192 3Q144 3 101.50 2.50Q59 2 34 0L34 20Q66 22 82 28Q98 34 103.50 52Q109 70 109 106L109 602Q109 639 103.50 656.50Q98 674 81.50 680.50Q65 687 34 688L34 708M223 353Q266 352 297.50 349Q329 346 353 343.50Q377 341 396 340Q487 332 530.50 301Q574 270 587 208L610 105Q619 65 629 49Q639 33 658 33Q671 34 679.50 39.50Q688 45 698 56L712 44Q685 13 654-0.50Q623-14 579-14Q525-14 490 9Q455 32 444 94L426 194Q419 236 409 267.50Q399 299 381.50 317.50Q364 336 333 336L225 336L223 353Z"  horiz-adv-x="692" vert-adv-y="1000"  />

      
      <glyph glyph-name="uni53" unicode="&#x53;" d="M284 721Q343 721 375 708.50Q407 696 430 682Q442 675 449.50 671.50Q457 668 464 668Q474 668 478.50 679Q483 690 486 712L509 712Q508 693 506.50 666.50Q505 640 504.50 597Q504 554 504 484L481 484Q477 536 457 585Q437 634 400.50 665.50Q364 697 311 697Q263 697 232 670Q201 643 201 595Q201 555 221 526.50Q241 498 279.50 471Q318 444 373 406Q421 375 459 344Q497 313 520 274Q543 235 543 181Q543 115 508.50 72Q474 29 418 7.50Q362-14 295-14Q233-14 196-2Q159 10 134 23Q112 37 100 37Q90 37 85.50 26Q81 15 78-7L55-7Q57 17 57.50 49Q58 81 58.50 132.50Q59 184 59 263L82 263Q86 197 104.50 139.50Q123 82 161.50 47Q200 12 264 12Q299 12 326.50 24.50Q354 37 371 62Q388 87 388 124Q388 166 368.50 197Q349 228 315.50 255Q282 282 238 310Q191 341 150 372Q109 403 84.50 443Q60 483 60 538Q60 601 91.50 641.50Q123 682 174.50 701.50Q226 721 284 721Z"  horiz-adv-x="584" vert-adv-y="1000"  />

      
      <glyph glyph-name="uni54" unicode="&#x54;" d="M642 708Q638 657 636.50 610Q635 563 635 538Q635 516 636 496Q637 476 638 462L615 462Q599 546 574.50 595Q550 644 516 664.50Q482 685 436 685L413 685L413 114Q413 74 421.50 54Q430 34 453 27.50Q476 21 520 20L520 0Q489 1 437.50 2Q386 3 330 3Q275 3 226 2Q177 1 147 0L147 20Q192 21 215 27.50Q238 34 246 54Q254 74 254 114L254 685L232 685Q186 685 152 664.50Q118 644 94 595.50Q70 547 52 462L29 462Q31 476 31.50 496Q32 516 32 538Q32 563 30.50 610Q29 657 25 708Q71 707 125.50 706Q180 705 235 705Q290 705 334 705Q379 705 433.50 705Q488 705 543 706Q598 707 642 708Z"  horiz-adv-x="668" vert-adv-y="1000"  />

      
      <glyph glyph-name="uni55" unicode="&#x55;" d="M671 708L671 688Q639 684 622.50 671.50Q606 659 601 632Q596 605 596 556L596 291Q596 226 587 172Q578 118 555 79Q529 36 479 11Q429-14 352-14Q306-14 258-3.50Q210 7 172 36Q140 63 123 97Q106 131 100 177.50Q94 224 94 288L94 602Q94 639 88.50 656.50Q83 674 67 680.50Q51 687 19 688L19 708Q44 707 86.50 706Q129 705 175 705Q221 705 263.50 706Q306 707 334 708L334 688Q300 687 282.50 680.50Q265 674 259 656.50Q253 639 253 602L253 225Q253 175 259.50 136.50Q266 98 281.50 72.50Q297 47 324 34Q351 21 391 21Q461 21 500.50 54Q540 87 556.50 145.50Q573 204 573 280L573 544Q573 599 566 628.50Q559 658 538.50 671Q518 684 476 688L476 708Q495 707 526 706Q557 705 584 705Q608 705 631.50 706Q655 707 671 708Z"  horiz-adv-x="689" vert-adv-y="1000"  />

      
      <glyph glyph-name="uni56" unicode="&#x56;" d="M678 708L678 688Q656 680 631.50 653Q607 626 586 569L375-2Q367-1 358-1Q349-1 340-1Q332-1 323-1Q314-1 306-2L51 624Q37 660 20 673.50Q3 687-12 688L-12 708Q18 707 58.50 706Q99 705 140 705Q186 705 226.50 706Q267 707 292 708L292 688Q260 687 242 680.50Q224 674 222 656.50Q220 639 234 604L416 141L395 116L533 488Q560 563 561 606Q562 649 540 668Q518 687 477 688L477 708Q511 707 541 706Q571 705 602 705Q624 705 643.50 706Q663 707 678 708Z"  horiz-adv-x="668" vert-adv-y="1000"  />

      
      <glyph glyph-name="uni57" unicode="&#x57;" d="M974 708L974 688Q952 680 928 653.50Q904 627 886 569L710-2Q702-1 693-1Q684-1 675-1Q666-1 657-1Q648-1 640-2L430 634Q420 665 405.50 676Q391 687 375 688L375 708Q403 707 441.50 706Q480 705 518 705Q562 705 600.50 706Q639 707 662 708L662 688Q632 687 614.50 681Q597 675 594.50 658Q592 641 604 604L746 170L723 129L836 488Q860 564 859 607Q858 650 836 668.50Q814 687 773 688L773 708Q807 707 837 706Q867 705 897 705Q920 705 939.50 706Q959 707 974 708M260 708L260 688Q240 685 232 673.50Q224 662 225.50 643.50Q227 625 234 604L387 160L360 124L488 498L502 471L345-2Q337-1 328-1Q319-1 310-1Q301-1 292-1Q283-1 275-2L51 624Q38 661 20.50 674Q3 687-12 688L-12 708Q18 707 59 706Q100 705 137 705Q177 705 208.50 706Q240 707 260 708Z"  horiz-adv-x="968" vert-adv-y="1000"  />

      
      <glyph glyph-name="uni58" unicode="&#x58;" d="M299 709L299 688Q254 688 241.50 679.50Q229 671 243 650L639 71Q659 43 671 33Q683 23 703 21L703 0Q683 1 645 2.50Q607 4 566 4Q521 4 474.50 2.50Q428 1 405 0L405 21Q451 21 464.50 27.50Q478 34 464 55L67 638Q48 667 36 677Q24 687 3 688L3 709Q24 708 64.50 706.50Q105 705 146 705Q191 705 232.50 706.50Q274 708 299 709M308 356Q308 356 310 349.50Q312 343 314 336.50Q316 330 316 330L216 193Q176 139 171 101.50Q166 64 188.50 43.50Q211 23 255 20L255 0Q241 1 219.50 1.50Q198 2 174.50 2.50Q151 3 130.50 3Q110 3 97 3Q69 3 45 2.50Q21 2 5 0L5 20Q40 32 76 62.50Q112 93 150 142L308 356M658 708L658 688Q625 679 592.50 650Q560 621 532 583L370 367Q370 367 366.50 380Q363 393 363 393L466 532Q504 580 511.50 614Q519 648 500 667Q481 686 440 688L440 708Q459 707 482 706.50Q505 706 527.50 705.50Q550 705 566 705Q595 705 619 706Q643 707 658 708Z"  horiz-adv-x="691" vert-adv-y="1000"  />

      
      <glyph glyph-name="uni59" unicode="&#x59;" d="M617 709L617 689Q595 680 572 653.50Q549 627 521 573L332 199L285 199L51 632Q33 666 18.50 677Q4 688-7 688L-7 709Q20 706 48.50 705Q77 704 111 704Q155 704 206 705.50Q257 707 299 709L299 688Q274 688 254 684Q234 680 226 669.50Q218 659 230 636L388 332L357 292L460 499Q497 571 499.50 612Q502 653 479.50 670.50Q457 688 416 689L416 709Q450 708 480 707Q510 706 541 706Q563 706 582.50 707Q602 708 617 709M403 357L403 106Q403 70 408.50 52Q414 34 430 28Q446 22 478 20L478 0Q451 2 408.50 2.50Q366 3 324 3Q277 3 235 2.50Q193 2 169 0L169 20Q201 22 217 28Q233 34 238.50 52Q244 70 244 106L244 311L331 249L403 357Z"  horiz-adv-x="623" vert-adv-y="1000"  />

      
      <glyph glyph-name="uni5a" unicode="&#x5a;" d="M557 708L557 688L215 23L319 23Q353 23 387.50 34Q422 45 451.50 70Q481 95 502 136.50Q523 178 530 240L553 240Q550 206 550 152Q550 129 551 87Q552 45 557 0Q520 2 476 2.50Q432 3 388.50 3Q345 3 308 3Q243 3 172 2.50Q101 2 39 0L39 20L382 685L274 685Q236 685 203.50 675Q171 665 144 641.50Q117 618 99 578.50Q81 539 74 480L51 480Q53 494 53.50 514Q54 534 54 556Q54 579 52.50 621Q51 663 47 708Q80 707 120 706Q160 705 199.50 705Q239 705 272 705Q339 705 415 705.50Q491 706 557 708Z"  horiz-adv-x="602" vert-adv-y="1000"  />

      
      <glyph glyph-name="uni5b" unicode="&#x5b;" d="M285 772L285 753L228 753L228-162L285-162L285-181L84-181L84 772L285 772Z"  horiz-adv-x="322" vert-adv-y="1000"  />

      
      <glyph glyph-name="uni5c" unicode="&#x5c;" d="M31 722L64 722L336-14L303-14L31 722Z"  horiz-adv-x="368" vert-adv-y="1000"  />

      
      <glyph glyph-name="uni5d" unicode="&#x5d;" d="M38 772L239 772L239-181L38-181L38-162L95-162L95 753L38 753L38 772Z"  horiz-adv-x="322" vert-adv-y="1000"  />

      
      <glyph glyph-name="uni5e" unicode="&#x5e;" d="M273 528Q303 470 356 415Q409 360 472 324L464 310Q401 325 341 348Q281 371 244 394Q215 371 165.50 348Q116 325 64 310L56 324Q120 359 172.50 414.50Q225 470 255 528L273 528Z"  horiz-adv-x="529" vert-adv-y="1000"  />

      
      <glyph glyph-name="uni5f" unicode="&#x5f;" d="M556-84L556-183L66-183L66-84L556-84Z"  horiz-adv-x="591" vert-adv-y="1000"  />

      
      <glyph glyph-name="uni60" unicode="&#x60;" d="M69 817Q87 833 111.50 829Q136 825 151 806Q168 787 178 761Q188 735 202.50 698.50Q217 662 246 608L235 599Q191 640 159.50 663Q128 686 105.50 702Q83 718 66 738Q50 758 51 780.50Q52 803 69 817Z"  horiz-adv-x="296" vert-adv-y="1000"  />

      
      <glyph glyph-name="uni61" unicode="&#x61;" d="M162-7Q117-7 87 10Q57 27 43 55.50Q29 84 29 118Q29 161 48.50 188Q68 215 99 232Q130 249 164.50 260Q199 271 230.50 281.50Q262 292 281.50 306.50Q301 321 301 344L301 422Q301 448 292.50 468.50Q284 489 266.50 500Q249 511 221 511Q201 511 181 505.50Q161 500 148 487Q176 477 191.50 456.50Q207 436 207 410Q207 376 183.50 356Q160 336 128 336Q92 336 73.50 358.50Q55 381 55 413Q55 442 69.50 461Q84 480 110 497Q138 513 177.50 522Q217 531 263 531Q309 531 346 521.50Q383 512 408 487Q431 464 438 430.50Q445 397 445 346L445 74Q445 49 450 39.50Q455 30 467 30Q476 30 484.50 35Q493 40 503 47L513 30Q492 12 464.50 2.50Q437-7 403-7Q366-7 344 3.50Q322 14 312.50 32Q303 50 303 74Q279 36 245 14.50Q211-7 162-7M233 57Q253 57 269.50 66.50Q286 76 301 98L301 303Q292 288 276 276Q260 264 242 251.50Q224 239 207.50 224Q191 209 181 187Q171 165 171 134Q171 95 188 76Q205 57 233 57Z"  horiz-adv-x="518" vert-adv-y="1000"  />

      
      <glyph glyph-name="uni62" unicode="&#x62;" d="M367 531Q445 531 496.50 467.50Q548 404 548 272Q548 168 516.50 105Q485 42 433 14Q381-14 319-14Q278-14 243 0Q208 14 183 46L197 51Q215 29 239.50 18Q264 7 288 7Q343 7 370 69Q397 131 397 258Q397 344 386.50 394.50Q376 445 356 466.50Q336 488 308 488Q273 488 244 459.50Q215 431 211 380L206 415Q224 472 267 501.50Q310 531 367 531M214 782L214 20Q189 24 163 20Q137 16 115 6.50Q93-3 78-16L63-7Q67 7 68.50 21Q70 35 70 49L70 662Q70 707 56.50 728.50Q43 750 6 750L6 771Q38 768 68 768Q109 768 146 771.50Q183 775 214 782Z"  horiz-adv-x="586" vert-adv-y="1000"  />

      
      <glyph glyph-name="uni63" unicode="&#x63;" d="M284 531Q323 531 355.50 522.50Q388 514 409 501Q435 485 449.50 461.50Q464 438 464 407Q464 372 442 349.50Q420 327 385 327Q350 327 329 347Q308 367 308 401Q308 433 328 454.50Q348 476 374 483Q366 493 350 500Q334 507 314 507Q283 507 259.50 489Q236 471 220 439Q204 407 195.50 364Q187 321 187 270Q187 193 206.50 149Q226 105 256.50 87Q287 69 320 69Q339 69 361.50 75Q384 81 407.50 99Q431 117 451 150L468 144Q457 107 432 70Q407 33 367 9.50Q327-14 269-14Q204-14 151.50 14.50Q99 43 67.50 102.50Q36 162 36 256Q36 346 68.50 407.50Q101 469 157 500Q213 531 284 531Z"  horiz-adv-x="496" vert-adv-y="1000"  />

      
      <glyph glyph-name="uni64" unicode="&#x64;" d="M516 783L516 110Q516 65 530 43.50Q544 22 580 22L580 1Q549 4 518 4Q476 4 439.50 1Q403-2 372-10L372 663Q372 708 358.50 729.50Q345 751 308 751L308 772Q340 769 370 769Q411 769 448 772.50Q485 776 516 783M261 531Q305 531 338.50 516.50Q372 502 391 468L379 457Q366 481 344.50 491.50Q323 502 299 502Q248 502 218 442.50Q188 383 189 259Q189 174 200.50 123.50Q212 73 233.50 51Q255 29 283 29Q317 29 344 56Q371 83 373 129L378 94Q363 41 329.50 13.50Q296-14 242-14Q183-14 136.50 15Q90 44 64 104.50Q38 165 38 261Q38 352 67 411.50Q96 471 146.50 501Q197 531 261 531Z"  horiz-adv-x="598" vert-adv-y="1000"  />

      
      <glyph glyph-name="uni65" unicode="&#x65;" d="M282 531Q370 531 420 479Q470 427 470 309L141 309L139 328L344 328Q345 377 338 418.50Q331 460 316 485Q301 510 276 510Q241 510 216.50 466Q192 422 187 320L190 314Q189 302 188.50 289Q188 276 188 262Q188 193 207.50 150Q227 107 257 87.50Q287 68 318 68Q339 68 361.50 74.50Q384 81 407 98.50Q430 116 450 148L468 142Q456 104 430 68Q404 32 364 9Q324-14 268-14Q200-14 148 15Q96 44 66.50 103Q37 162 37 253Q37 346 68.50 408Q100 470 155.50 500.50Q211 531 282 531Z"  horiz-adv-x="504" vert-adv-y="1000"  />

      
      <glyph glyph-name="uni66" unicode="&#x66;" d="M288 782Q323 782 349 773Q375 764 395 749Q409 738 419 718.50Q429 699 429 674Q429 647 409.50 626Q390 605 358 605Q325 605 303.50 624Q282 643 282 676Q282 702 297 722Q312 742 341 750Q338 756 329 760Q320 764 305 764Q285 764 272 757Q259 750 251 738Q240 723 236 694.50Q232 666 232 607L232 516L339 516L339 496L232 496L232 103Q232 54 257 37.50Q282 21 326 21L326 0Q300 1 253 2.50Q206 4 154 4Q116 4 79.50 2.50Q43 1 24 0L24 21Q59 21 73.50 36Q88 51 88 93L88 496L20 496L20 516L88 516Q88 575 94 614.50Q100 654 114 682Q128 710 151 732Q173 753 209.50 767.50Q246 782 288 782Z"  horiz-adv-x="352" vert-adv-y="1000"  />

      
      <glyph glyph-name="uni67" unicode="&#x67;" d="M218-188Q156-188 107.50-177.50Q59-167 31.50-145.50Q4-124 4-93Q4-62 32-37.50Q60-13 115 1L124-15Q105-30 96.50-47.50Q88-65 88-84Q88-126 126.50-148.50Q165-171 231-171Q276-171 311.50-159Q347-147 367.50-123Q388-99 388-64Q388-34 366-13.50Q344 7 278 7L216 7Q175 7 144.50 16Q114 25 97 44.50Q80 64 80 94Q80 136 113 168Q146 200 211 228L221 220Q202 208 185.50 194.50Q169 181 169 160Q169 128 209 128L318 128Q373 128 416.50 115Q460 102 485.50 72.50Q511 43 511-4Q511-53 479.50-95Q448-137 383-162.50Q318-188 218-188M228 213Q171 213 126 230Q81 247 55 282Q29 317 29 372Q29 427 55 462.50Q81 498 126 514.50Q171 531 228 531Q285 531 330 514.50Q375 498 401 462.50Q427 427 427 372Q427 317 401 282Q375 247 330 230Q285 213 228 213M228 231Q255 231 270 261.50Q285 292 285 372Q285 452 270 482.50Q255 513 228 513Q202 513 186.50 482.50Q171 452 171 372Q171 292 186.50 261.50Q202 231 228 231M384 445L364 452Q379 491 412.50 517Q446 543 485 543Q517 543 533.50 525.50Q550 508 550 480Q550 450 534 435.50Q518 421 498 421Q481 421 466.50 433Q452 445 450 469.50Q448 494 467 533L474 527Q436 513 417 494.50Q398 476 384 445Z"  horiz-adv-x="553" vert-adv-y="1000"  />

      
      <glyph glyph-name="uni68" unicode="&#x68;" d="M227 782L227 438Q252 490 294.50 510.50Q337 531 390 531Q433 531 459 520.50Q485 510 500 492Q517 473 524.50 443Q532 413 532 362L532 93Q532 51 546.50 36Q561 21 596 21L596 0Q577 1 538.50 2.50Q500 4 464 4Q425 4 388.50 2.50Q352 1 334 0L334 21Q364 21 376 36Q388 51 388 93L388 404Q388 429 383 447.50Q378 466 364.50 476.50Q351 487 326 487Q299 487 276.50 472.50Q254 458 240.50 432Q227 406 227 372L227 93Q227 51 239 36Q251 21 281 21L281 0Q263 1 228 2.50Q193 4 157 4Q118 4 78.50 2.50Q39 1 19 0L19 21Q54 21 68.50 36Q83 51 83 93L83 662Q83 707 69.50 728.50Q56 750 19 750L19 771Q51 768 81 768Q122 768 159 771.50Q196 775 227 782Z"  horiz-adv-x="608" vert-adv-y="1000"  />

      
      <glyph glyph-name="uni69" unicode="&#x69;" d="M154 775Q196 775 220.50 754.50Q245 734 245 698Q245 662 220.50 641.50Q196 621 154 621Q112 621 87.50 641.50Q63 662 63 698Q63 734 87.50 754.50Q112 775 154 775M232 528L232 93Q232 51 246.50 36Q261 21 296 21L296 0Q278 1 240 2.50Q202 4 163 4Q124 4 84 2.50Q44 1 24 0L24 21Q59 21 73.50 36Q88 51 88 93L88 408Q88 453 74.50 474.50Q61 496 24 496L24 517Q56 514 86 514Q128 514 164.50 517.50Q201 521 232 528Z"  horiz-adv-x="315" vert-adv-y="1000"  />

      
      <glyph glyph-name="uni6a" unicode="&#x6a;" d="M-23-188L-23-170Q26-169 55-131.50Q84-94 84-18L84 408Q84 453 70 474.50Q56 496 20 496L20 517Q52 514 82 514Q123 514 160 517.50Q197 521 228 528L228 94Q228 39 221-3Q214-45 198-77Q182-109 156-134Q131-158 87.50-173Q44-188-23-188M145 775Q187 775 211.50 754.50Q236 734 236 698Q236 662 211.50 641.50Q187 621 145 621Q103 621 78.50 641.50Q54 662 54 698Q54 734 78.50 754.50Q103 775 145 775Z"  horiz-adv-x="297" vert-adv-y="1000"  />

      
      <glyph glyph-name="uni6b" unicode="&#x6b;" d="M227 783L227 93Q227 51 240.50 36Q254 21 287 21L287 0Q268 1 231.50 2.50Q195 4 157 4Q118 4 78.50 2.50Q39 1 19 0L19 21Q54 21 68.50 36Q83 51 83 93L83 663Q83 708 69.50 729.50Q56 751 19 751L19 772Q51 769 81 769Q122 769 159 772.50Q196 776 227 783M553 517L553 497Q522 491 491 471Q460 451 428 420L351 340L361 359L532 73Q543 55 555 41Q567 27 584 21L584 0Q569 1 539 2.50Q509 4 479 4Q442 4 405 2.50Q368 1 350 0L350 21Q370 21 377 30.50Q384 40 375 55L276 234Q264 253 252.50 258.50Q241 264 222 265L222 284Q243 286 258.50 291Q274 296 287 310L363 384Q397 416 397 441Q397 466 375.50 481Q354 496 319 497L319 517Q347 516 380 515Q413 514 436 514Q456 514 478.50 514.50Q501 515 521 515.50Q541 516 553 517Z"  horiz-adv-x="585" vert-adv-y="1000"  />

      
      <glyph glyph-name="uni6c" unicode="&#x6c;" d="M228 783L228 93Q228 51 242.50 36Q257 21 292 21L292 0Q273 1 235 2.50Q197 4 158 4Q119 4 79.50 2.50Q40 1 20 0L20 21Q55 21 69.50 36Q84 51 84 93L84 663Q84 708 70.50 729.50Q57 751 20 751L20 772Q52 769 82 769Q123 769 160 772.50Q197 776 228 783Z"  horiz-adv-x="311" vert-adv-y="1000"  />

      
      <glyph glyph-name="uni6d" unicode="&#x6d;" d="M387 531Q429 531 455 520.50Q481 510 497 492Q513 473 520 442.50Q527 412 527 362L527 93Q527 51 540 36Q553 21 585 21L585 0Q567 1 530.50 2.50Q494 4 459 4Q423 4 388 2.50Q353 1 335 0L335 21Q362 21 372.50 36Q383 51 383 93L383 404Q383 429 379 447.50Q375 466 363.50 476.50Q352 487 329 487Q303 487 281 472Q259 457 245.50 430.50Q232 404 232 371L232 93Q232 51 243 36Q254 21 280 21L280 0Q264 1 230.50 2.50Q197 4 162 4Q124 4 84 2.50Q44 1 24 0L24 21Q59 21 73.50 36Q88 51 88 93L88 408Q88 453 74.50 474.50Q61 496 24 496L24 517Q56 514 86 514Q128 514 164.50 517.50Q201 521 232 528L232 438Q256 488 297 509.50Q338 531 387 531M688 531Q730 531 756 520.50Q782 510 798 492Q814 473 821 442.50Q828 412 828 362L828 93Q828 51 842.50 36Q857 21 892 21L892 0Q873 1 835 2.50Q797 4 760 4Q724 4 689 2.50Q654 1 636 0L636 21Q663 21 673.50 36Q684 51 684 93L684 404Q684 429 679.50 447.50Q675 466 662.50 476.50Q650 487 624 487Q598 487 576 471Q554 455 540.50 428Q527 401 526 368L521 429Q548 489 592.50 510Q637 531 688 531Z"  horiz-adv-x="905" vert-adv-y="1000"  />

      
      <glyph glyph-name="uni6e" unicode="&#x6e;" d="M396 531Q438 531 464.50 520.50Q491 510 506 492Q522 473 529.50 443Q537 413 537 362L537 93Q537 51 551.50 36Q566 21 601 21L601 0Q582 1 544 2.50Q506 4 469 4Q431 4 394.50 2.50Q358 1 339 0L339 21Q369 21 381 36Q393 51 393 93L393 404Q393 429 388 447.50Q383 466 370 476.50Q357 487 331 487Q304 487 281.50 472Q259 457 245.50 430.50Q232 404 232 371L232 93Q232 51 244.50 36Q257 21 286 21L286 0Q268 1 233.50 2.50Q199 4 162 4Q124 4 84 2.50Q44 1 24 0L24 21Q59 21 73.50 36Q88 51 88 93L88 408Q88 453 74.50 474.50Q61 496 24 496L24 517Q56 514 86 514Q128 514 164.50 517.50Q201 521 232 528L232 438Q257 489 300 510Q343 531 396 531Z"  horiz-adv-x="614" vert-adv-y="1000"  />

      
      <glyph glyph-name="uni6f" unicode="&#x6f;" d="M282 531Q355 531 410 504Q465 477 496 417Q527 357 527 258Q527 159 496 99.50Q465 40 410 13Q355-14 282-14Q211-14 155.50 13Q100 40 68.50 99.50Q37 159 37 258Q37 357 68.50 417Q100 477 155.50 504Q211 531 282 531M282 511Q242 511 215 451.50Q188 392 188 258Q188 124 215 65Q242 6 282 6Q323 6 349.50 65Q376 124 376 258Q376 392 349.50 451.50Q323 511 282 511Z"  horiz-adv-x="565" vert-adv-y="1000"  />

      
      <glyph glyph-name="uni70" unicode="&#x70;" d="M228 528L228-82Q228-129 252-144.50Q276-160 318-160L318-181Q292-180 246.50-178.50Q201-177 150-177Q113-177 77.50-178.50Q42-180 24-181L24-160Q57-160 70.50-146Q84-132 84-92L84 408Q84 453 70 474.50Q56 496 20 496L20 517Q52 514 82 514Q123 514 160 517.50Q197 521 228 528M383 531Q434 531 474 503.50Q514 476 538 420.50Q562 365 562 282Q562 209 545.50 154Q529 99 498.50 61.50Q468 24 425.50 5Q383-14 330-14Q291-14 259-0.50Q227 13 210 38L220 51Q230 33 248.50 23Q267 13 291 13Q336 13 362 43.50Q388 74 399.50 129.50Q411 185 411 262Q411 348 400 397Q389 446 370 467Q351 488 324 488Q288 488 258.50 460Q229 432 225 380L220 415Q238 472 281.50 501.50Q325 531 383 531Z"  horiz-adv-x="600" vert-adv-y="1000"  />

      
      <glyph glyph-name="uni71" unicode="&#x71;" d="M256 531Q303 531 337 518.50Q371 506 396 472L381 467Q366 490 343 500Q320 510 294 510Q242 510 215 448Q188 386 188 259Q188 174 200 123.50Q212 73 233.50 51Q255 29 284 29Q317 29 344.50 58Q372 87 374 137L379 102Q364 45 329 15.50Q294-14 242-14Q185-14 138.50 15Q92 44 64.50 104.50Q37 165 37 261Q37 352 65 411.50Q93 471 142.50 501Q192 531 256 531M507 533L522 525Q518 512 516.50 497.50Q515 483 515 468L515-92Q515-132 528.50-146Q542-160 575-160L575-181Q557-180 522-178.50Q487-177 449-177Q399-177 353-178.50Q307-180 281-181L281-160Q324-160 347.50-144.50Q371-129 371-82L371 491Q397 489 423 494Q449 499 471.50 509.50Q494 520 507 533Z"  horiz-adv-x="585" vert-adv-y="1000"  />

      
      <glyph glyph-name="uni72" unicode="&#x72;" d="M368 531Q400 531 420 517.50Q440 504 449.50 483Q459 462 459 439Q459 402 437.50 378.50Q416 355 381 355Q346 355 326.50 372.50Q307 390 307 419Q307 447 319.50 465.50Q332 484 351 497Q337 501 323 496Q304 493 287 480.50Q270 468 258 449.50Q246 431 239 409.50Q232 388 232 368L232 103Q232 55 255.50 38Q279 21 326 21L326 0Q303 1 259 2.50Q215 4 167 4Q127 4 86 2.50Q45 1 24 0L24 21Q59 21 73.50 36Q88 51 88 93L88 408Q88 453 74.50 474.50Q61 496 24 496L24 517Q56 514 86 514Q128 514 164.50 517.50Q201 521 232 528L232 435Q244 462 264 484Q284 506 310 518.50Q336 531 368 531Z"  horiz-adv-x="467" vert-adv-y="1000"  />

      
      <glyph glyph-name="uni73" unicode="&#x73;" d="M222 531Q264 531 295.50 520.50Q327 510 341 500Q375 477 383 530L404 530Q402 502 401 461.50Q400 421 400 354L379 354Q374 391 360 427Q346 463 319.50 486Q293 509 251 509Q222 509 202 492.50Q182 476 182 445Q182 415 200 392.50Q218 370 246.50 349.50Q275 329 306 306Q339 281 366 256.50Q393 232 409 203Q425 174 425 134Q425 89 399 55.50Q373 22 330.50 4Q288-14 236-14Q206-14 182.50-8Q159-2 142 7Q129 13 117.50 18.50Q106 24 96 28Q86 31 78.50 21Q71 11 67-7L46-7Q48 25 49 71Q50 117 50 193L71 193Q77 139 93 97.50Q109 56 136.50 32.50Q164 9 206 9Q223 9 239 16Q255 23 265.50 39Q276 55 276 80Q276 124 247.50 153Q219 182 175 216Q143 242 114.50 267.50Q86 293 68 323.50Q50 354 50 393Q50 438 74 469Q98 500 137.50 515.50Q177 531 222 531Z"  horiz-adv-x="462" vert-adv-y="1000"  />

      
      <glyph glyph-name="uni74" unicode="&#x74;" d="M227 681L227 517L345 517L345 497L227 497L227 93Q227 63 238 50.50Q249 38 271 38Q289 38 307 51.50Q325 65 339 98L356 89Q340 44 307.50 15Q275-14 219-14Q186-14 161-5.50Q136 3 119 20Q97 42 90 74.50Q83 107 83 159L83 497L-1 497L-1 517L83 517L83 649Q125 649 160.50 656.50Q196 664 227 681Z"  horiz-adv-x="352" vert-adv-y="1000"  />

      
      <glyph glyph-name="uni75" unicode="&#x75;" d="M522 528L522 109Q522 64 536 42.50Q550 21 586 21L586 0Q555 3 524 3Q482 3 446 0Q410-3 378-11L378 79Q354 29 311.50 7.50Q269-14 217-14Q175-14 149-3Q123 8 108 25Q91 44 84 75Q77 106 77 155L77 408Q77 453 63.50 474.50Q50 496 13 496L13 517Q45 514 75 514Q117 514 153.50 517.50Q190 521 221 528L221 114Q221 89 225.50 70Q230 51 243 40.50Q256 30 281 30Q308 30 329.50 45Q351 60 364.50 86.50Q378 113 378 146L378 408Q378 453 364.50 474.50Q351 496 314 496L314 517Q346 514 376 514Q418 514 454.50 517.50Q491 521 522 528Z"  horiz-adv-x="606" vert-adv-y="1000"  />

      
      <glyph glyph-name="uni76" unicode="&#x76;" d="M507 517L507 497Q488 492 471 473.50Q454 455 438 411L292-2Q276-1 259.50-1Q243-1 227-2L49 440Q33 479 17.50 487.50Q2 496-9 496L-9 517Q23 515 57.50 513.50Q92 512 133 512Q164 512 198.50 513.50Q233 515 263 517L263 496Q242 496 225.50 494Q209 492 203 481Q197 470 205 442L322 132L312 118L391 337Q410 391 407 425.50Q404 460 385 477.50Q366 495 334 497L334 517Q349 516 366.50 515.50Q384 515 400.50 514.50Q417 514 430 514Q450 514 472 515Q494 516 507 517Z"  horiz-adv-x="508" vert-adv-y="1000"  />

      
      <glyph glyph-name="uni77" unicode="&#x77;" d="M265 517L265 496Q243 496 226.50 493.50Q210 491 204.50 479Q199 467 208 440L303 143L290 129L407 518L427 509L274-2Q258-1 242-1Q226-1 209-2L51 440Q37 480 20.50 488Q4 496-7 496L-7 517Q25 514 59.50 512.50Q94 511 135 511Q166 511 200.50 513Q235 515 265 517M787 517L787 497Q768 492 751 474Q734 456 719 411L586-2Q570-1 553.50-1Q537-1 521-2L380 383L407 518Q425 517 443.50 517.50Q462 518 480 518L617 114L606 125L673 337Q690 392 686 426Q682 460 662 477Q642 494 608 497L608 517Q624 516 642.50 515.50Q661 515 679.50 514.50Q698 514 711 514Q731 514 752.50 515Q774 516 787 517Z"  horiz-adv-x="787" vert-adv-y="1000"  />

      
      <glyph glyph-name="uni78" unicode="&#x78;" d="M246 517L246 496Q226 496 216.50 487Q207 478 217 462L480 71Q492 53 505.50 38.50Q519 24 536 21L536 0Q521 1 490.50 2.50Q460 4 429 4Q393 4 355 2.50Q317 1 299 0L299 21Q319 21 328.50 30Q338 39 328 55L65 446Q48 471 36.50 482.50Q25 494 9 496L9 517Q26 516 60 514.50Q94 513 128 513Q161 513 195 514.50Q229 516 246 517M223 241Q223 241 224.50 235Q226 229 227.50 223Q229 217 229 217L189 166Q159 127 156 94.50Q153 62 173 42.50Q193 23 228 20L228 0Q209 1 181.50 1.50Q154 2 128 2.50Q102 3 84 3Q62 3 45.50 2.50Q29 2 14 0L14 20Q37 29 58 46.50Q79 64 105 97L223 241M507 517L507 497Q486 491 463 471Q440 451 415 420L305 282Q305 282 303.50 287.50Q302 293 300.50 299Q299 305 299 305L349 372Q376 407 382 434Q388 461 373.50 478Q359 495 323 497L323 517Q352 516 382 515Q412 514 436 514Q459 514 476 515Q493 516 507 517Z"  horiz-adv-x="536" vert-adv-y="1000"  />

      
      <glyph glyph-name="uni79" unicode="&#x79;" d="M513 517L513 497Q494 492 477 473.50Q460 455 444 411L303 15L266-55L48 440Q31 479 14.50 487.50Q-2 496-14 496L-14 517Q19 514 54.50 512.50Q90 511 123 511Q164 511 198 513Q232 515 262 517L262 496Q242 496 224.50 493.50Q207 491 200.50 479.50Q194 468 206 440L332 136L323 130L397 337Q416 391 413 425.50Q410 460 391 477.50Q372 495 339 497L339 517Q355 516 372 515.50Q389 515 406 514.50Q423 514 436 514Q456 514 478 515Q500 516 513 517M303 15L265-92Q255-117 244.50-134.50Q234-152 221-163Q207-175 185-181.50Q163-188 134-188Q110-188 84.50-180Q59-172 42-154Q25-136 25-108Q25-77 47-58.50Q69-40 105-40Q138-40 159-56Q180-72 180-103Q180-123 167.50-141Q155-159 130-168Q135-169 142-169Q149-169 153-169Q183-169 206-150Q229-131 244-90L279 13L303 15Z"  horiz-adv-x="519" vert-adv-y="1000"  />

      
      <glyph glyph-name="uni7a" unicode="&#x7a;" d="M444 522L194 15L246 15Q285 15 319.50 31.50Q354 48 377.50 87Q401 126 406 194L427 194Q427 121 428 74.50Q429 28 431-4Q386-2 337-1Q288 0 239 0Q188 0 134-1.50Q80-3 31-5L281 502L225 502Q185 502 151.50 485.50Q118 469 96.50 429.50Q75 390 69 323L48 323Q48 397 47 443Q46 489 44 521Q90 519 139 518Q188 517 236 517Q288 517 341.50 518.50Q395 520 444 522Z"  horiz-adv-x="474" vert-adv-y="1000"  />

      
      <glyph glyph-name="uni7b" unicode="&#x7b;" d="M316 782L316 763Q294 762 279.50 755Q265 748 257 727Q249 706 245.50 664Q242 622 242 551Q242 484 226 439Q210 394 182.50 366Q155 338 119.50 322.50Q84 307 45 299Q84 291 119.50 275.50Q155 260 182.50 232Q210 204 226 159Q242 114 242 47Q242-27 245.50-70Q249-113 257-134.50Q265-156 279.50-162.50Q294-169 316-169L316-188Q237-188 189-167.50Q141-147 119.50-96Q98-45 98 47Q98 141 91.50 192.50Q85 244 69 266Q53 288 22 290L17 290L17 308L22 308Q53 310 69 331.50Q85 353 91.50 405Q98 457 98 551Q98 639 119.50 689.50Q141 740 189 761Q237 782 316 782Z"  horiz-adv-x="333" vert-adv-y="1000"  />

      
      <glyph glyph-name="uni7c" unicode="&#x7c;" d="M171 858L171-195L83-195L83 858L171 858Z"  horiz-adv-x="253" vert-adv-y="1000"  />

      
      <glyph glyph-name="uni7d" unicode="&#x7d;" d="M17 782Q98 782 145.50 761Q193 740 214 689.50Q235 639 235 551Q235 457 241.50 405Q248 353 264.50 331.50Q281 310 311 308L316 308L316 290L311 290Q281 288 264.50 266Q248 244 241.50 192.50Q235 141 235 47Q235-45 214-96Q193-147 145.50-167.50Q98-188 17-188L17-169Q39-169 54-162.50Q69-156 77-134.50Q85-113 88-70Q91-27 91 47Q91 114 107.50 159Q124 204 151 232Q178 260 214 275.50Q250 291 288 299Q250 307 214 322.50Q178 338 151 366Q124 394 107.50 439Q91 484 91 551Q91 622 88 664Q85 706 77 727Q69 748 54 755Q39 762 17 763L17 782Z"  horiz-adv-x="333" vert-adv-y="1000"  />

      
      <glyph glyph-name="uni7e" unicode="&#x7e;" d="M213 389Q254 389 288 375.50Q322 362 354.50 344.50Q387 327 420.50 313.50Q454 300 491 300Q525 300 551.50 315.50Q578 331 593 370L611 366Q606 319 584.50 284Q563 249 529.50 230Q496 211 457 211Q417 211 382.50 224.50Q348 238 316 255.50Q284 273 251 286.50Q218 300 179 300Q146 300 119.50 284.50Q93 269 77 230L60 234Q64 281 86 316Q108 351 141.50 370Q175 389 213 389Z"  horiz-adv-x="668" vert-adv-y="1000"  />

      
      <glyph glyph-name="unia1" unicode="&#xa1;" d="M147 318Q149 256 160.50 197Q172 138 185.50 84Q199 30 209.50-15.50Q220-61 220-94Q220-141 196.50-164.50Q173-188 138-188Q103-188 79.50-164Q56-140 56-94Q56-61 66-16Q76 29 90 83Q104 137 115 196.50Q126 256 129 318L147 318M139 531Q177 531 200.50 510.50Q224 490 224 454Q224 418 200.50 397.50Q177 377 139 377Q100 377 77 397.50Q54 418 54 454Q54 490 77 510.50Q100 531 139 531Z"  horiz-adv-x="277" vert-adv-y="1000"  />

      
      <glyph glyph-name="unia2" unicode="&#xa2;" d="M253-181L253 44L275 44L275-181L253-181M253 519L253 708L275 708L275 519L253 519M280 531Q319 531 351.50 522.50Q384 514 405 501Q431 485 445.50 461.50Q460 438 460 407Q460 372 438 349.50Q416 327 381 327Q346 327 325 347Q304 367 304 401Q304 433 323.50 454.50Q343 476 370 483Q362 493 346 500Q330 507 310 507Q278 507 254.50 489Q231 471 215.50 439Q200 407 191.50 364Q183 321 183 270Q183 193 202.50 149Q222 105 252.50 87Q283 69 316 69Q335 69 357.50 75Q380 81 403 99Q426 117 446 150L464 144Q453 107 428 70Q403 33 363 9.50Q323-14 265-14Q200-14 147.50 14.50Q95 43 63.50 102.50Q32 162 32 256Q32 346 64.50 407.50Q97 469 153 500Q209 531 280 531Z"  horiz-adv-x="499" vert-adv-y="1000"  />

      
      <glyph glyph-name="unia3" unicode="&#xa3;" d="M387 736Q424 736 451.50 729Q479 722 496 712Q519 699 532.50 679.50Q546 660 546 635Q546 604 526 583.50Q506 563 474 563Q443 563 422.50 581.50Q402 600 402 629Q402 655 415.50 674.50Q429 694 454 703Q447 710 431 714.50Q415 719 395 719Q358 719 335.50 702.50Q313 686 301.50 654Q290 622 286 574.50Q282 527 282 465L282 337Q282 295 272 261.50Q262 228 244.50 198Q227 168 204.50 138Q182 108 157 74Q204 113 240 125.50Q276 138 307 138Q347 138 377 130Q407 122 436.50 113.50Q466 105 503 105Q535 105 552.50 122Q570 139 570 162Q570 193 549.50 211.50Q529 230 497 236L501 252Q533 247 562.50 230.50Q592 214 610.50 187Q629 160 629 121Q629 82 612.50 51Q596 20 562.50 3Q529-14 478-14Q434-14 396-1Q358 12 322.50 28.50Q287 45 252 54Q242 57 229.50 59.50Q217 62 203 62Q175 62 148 52Q127 19 102.50 2.50Q78-14 55-14Q46-14 39.50-11Q33-8 33 2Q33 13 43.50 24.50Q54 36 73.50 47Q93 58 120 64Q128 88 131 113.50Q134 139 134.50 173.50Q135 208 135 258L135 439Q135 501 147 554.50Q159 608 188 649Q217 690 265.50 713Q314 736 387 736M403 317L403 297L58 297L58 317L403 317M403 417L403 397L58 397L58 417L403 417Z"  horiz-adv-x="660" vert-adv-y="1000"  />

      
      <glyph glyph-name="unia4" unicode="&#xa4;" d="M472 548L557 463L497 404Q511 381 518 355Q525 329 525 300Q525 271 518 245Q511 219 497 196L556 137L471 52L412 111Q388 98 362 90.50Q336 83 308 83Q251 83 204 111L146 52L60 137L118 195Q105 218 97.50 244.50Q90 271 90 300Q90 329 97.50 355Q105 381 119 404L60 463L145 548L204 489Q226 503 252.50 510.50Q279 518 308 518Q337 518 363 510Q389 502 412 489L472 548M309 425Q277 425 250.50 408Q224 391 208.50 362.50Q193 334 193 300Q193 266 208.50 237.50Q224 209 250.50 192.50Q277 176 309 176Q341 176 367 192.50Q393 209 408.50 237.50Q424 266 424 300Q424 334 408.50 362.50Q393 391 367 408Q341 425 309 425Z"  horiz-adv-x="615" vert-adv-y="1000"  />

      
      <glyph glyph-name="unia5" unicode="&#xa5;" d="M559 303L559 283L150 283L150 303L559 303M559 203L559 183L150 183L150 203L559 203M649 709L649 689Q627 680 604 653.50Q581 627 553 573L364 199L317 199L83 632Q65 666 50.50 677Q36 688 25 688L25 709Q52 706 80.50 705Q109 704 143 704Q187 704 237.50 705.50Q288 707 331 709L331 688Q306 688 286 684Q266 680 258 669.50Q250 659 262 636L420 332L388 292L492 499Q528 571 530.50 612Q533 653 511 670.50Q489 688 448 689L448 709Q482 708 512 707Q542 706 572 706Q595 706 614.50 707Q634 708 649 709M434 357L434 106Q434 70 440 52Q446 34 462 28Q478 22 509 20L509 0Q483 2 440.50 2.50Q398 3 355 3Q309 3 267 2.50Q225 2 200 0L200 20Q233 22 249 28Q265 34 270 52Q275 70 275 106L275 311L362 249L434 357Z"  horiz-adv-x="678" vert-adv-y="1000"  />

      
      <glyph glyph-name="unia6" unicode="&#xa6;" d="M172 326L172-195L84-195L84 326L172 326M172 858L172 384L84 384L84 858L172 858Z"  horiz-adv-x="256" vert-adv-y="1000"  />

      
      <glyph glyph-name="unia7" unicode="&#xa7;" d="M313 782Q356 782 385 774.50Q414 767 431 760Q462 745 479.50 722.50Q497 700 497 667Q497 639 477.50 618Q458 597 423 597Q390 597 368.50 616.50Q347 636 347 666Q347 690 360.50 711Q374 732 398 740Q393 748 380.50 753Q368 758 352 760.50Q336 763 320 763Q282 763 259 749.50Q236 736 226 715.50Q216 695 216 672Q216 632 236 604.50Q256 577 292 552Q328 527 376 495Q430 458 468.50 427.50Q507 397 527 364Q547 331 547 287Q547 234 511.50 189Q476 144 388 105L379 115Q409 136 424 159Q439 182 439 215Q439 246 422 270.50Q405 295 369.50 323Q334 351 277 388Q214 429 171.50 463.50Q129 498 107.50 534Q86 570 86 615Q86 666 114.50 703.50Q143 741 194.50 761.50Q246 782 313 782M194 490L204 479Q173 459 158.50 436Q144 413 144 379Q144 349 160.50 324Q177 299 213 271Q249 243 306 206Q368 165 410.50 130.50Q453 96 475 60Q497 24 497-21Q497-71 468-109Q439-147 388-167.50Q337-188 269-188Q226-188 197-180.50Q168-173 151-166Q121-151 103-128.50Q85-106 85-73Q85-45 105-24Q125-3 159-3Q193-3 214-22.50Q235-42 235-72Q235-96 221.50-116.50Q208-137 184-146Q188-153 201-158.50Q214-164 230.50-166.50Q247-169 262-169Q301-169 323.50-155.50Q346-142 356.50-121Q367-100 367-78Q367-38 347-10.50Q327 17 291 42Q255 67 207 99Q152 136 114 166.50Q76 197 56 230.50Q36 264 36 307Q36 361 70.50 406Q105 451 194 490Z"  horiz-adv-x="581" vert-adv-y="1000"  />

      
      <glyph glyph-name="unia8" unicode="&#xa8;" d="M353 760Q383 760 405.50 737.50Q428 715 428 685Q428 654 405.50 632Q383 610 353 610Q322 610 299.50 632Q277 654 277 685Q277 715 299.50 737.50Q322 760 353 760M125 760Q155 760 178 737.50Q201 715 201 685Q201 654 178 632Q155 610 125 610Q94 610 72 632Q50 654 50 685Q50 715 72 737.50Q94 760 125 760Z"  horiz-adv-x="478" vert-adv-y="1000"  />

      
      <glyph glyph-name="unia9" unicode="&#xa9;" d="M440 782Q523 782 595 751Q667 720 721.50 665.50Q776 611 807 539Q838 467 838 384Q838 302 807 229.50Q776 157 721.50 102.50Q667 48 595 17Q523-14 440-14Q358-14 285.50 17Q213 48 158.50 102.50Q104 157 73 229.50Q42 302 42 384Q42 467 73 539Q104 611 158.50 665.50Q213 720 285.50 751Q358 782 440 782M463 657Q503 657 536 648Q569 639 590 625Q614 610 628.50 586.50Q643 563 643 533Q643 498 620.50 475.50Q598 453 564 453Q529 453 508 473.50Q487 494 487 528Q487 559 506 580.50Q525 602 553 609Q543 619 524 626.50Q505 634 483 634Q469 634 456 630Q443 626 430 616Q411 606 396.50 581Q382 556 374 511Q366 466 366 395Q366 311 385.50 263Q405 215 435.50 195.50Q466 176 498 176Q517 176 539.50 184Q562 192 585.50 213Q609 234 629 276L647 269Q636 233 611 196Q586 159 546 135.50Q506 112 448 112Q383 112 330.50 140.50Q278 169 246.50 228.50Q215 288 215 382Q215 472 247 533.50Q279 595 335.50 626Q392 657 463 657M440 750Q366 750 301 721.50Q236 693 187 642.50Q138 592 110 526Q82 460 82 384Q82 308 110 242Q138 176 187 125.50Q236 75 301 46.50Q366 18 440 18Q514 18 579 46.50Q644 75 693 125.50Q742 176 770 242Q798 308 798 384Q798 460 770 526Q742 592 693 642.50Q644 693 579 721.50Q514 750 440 750Z"  horiz-adv-x="881" vert-adv-y="1000"  />

      
      <glyph glyph-name="uniaa" unicode="&#xaa;" d="M241 722Q321 722 357 692Q393 662 393 595L393 427Q393 412 397.50 406.50Q402 401 412 401Q429 401 441 412L452 397Q432 381 403.50 370.50Q375 360 338 360Q297 360 282 372.50Q267 385 265 407Q240 382 208.50 371Q177 360 145 360Q104 360 75 379Q46 398 46 439Q46 480 81 502.50Q116 525 185 547Q213 556 239 570Q265 584 265 603L265 621Q265 666 248.50 684.50Q232 703 203 703Q190 703 175.50 699.50Q161 696 148 688Q170 682 181 665.50Q192 649 192 631Q192 603 171.50 588Q151 573 125 573Q95 573 77 589Q59 605 59 630Q59 654 74.50 671.50Q90 689 113 699Q139 711 169.50 716.50Q200 722 241 722M265 573Q261 565 252 556.50Q243 548 224 534Q200 518 189.50 499.50Q179 481 179 458Q179 435 190 421Q201 407 217 407Q243 407 265 426L265 573Z"  horiz-adv-x="482" vert-adv-y="1000"  />

      
      <glyph glyph-name="uniab" unicode="&#xab;" d="M302 533L317 527Q305 489 289.50 450.50Q274 412 255 376.50Q236 341 216 311Q196 281 175 260Q196 239 216 209Q236 179 255 142.50Q274 106 289.50 67.50Q305 29 317-10L302-15Q243 65 177 132.50Q111 200 26 252L26 265Q111 318 177 385.50Q243 453 302 533M501 509L516 503Q503 456 482.50 409.50Q462 363 439.50 324.50Q417 286 393 260Q417 235 439.50 195.50Q462 156 482.50 109Q503 62 516 14L501 9Q448 82 387.50 143.50Q327 205 250 252L250 265Q327 312 387.50 374Q448 436 501 509Z"  horiz-adv-x="569" vert-adv-y="1000"  />

      
      <glyph glyph-name="uniac" unicode="&#xac;" d="M575 370L575 165L539 165L539 340L74 340L74 370L575 370Z"  horiz-adv-x="642" vert-adv-y="1000"  />

      
      <glyph glyph-name="uniae" unicode="&#xae;" d="M332 782Q390 782 440.50 760.50Q491 739 529.50 700.50Q568 662 589.50 611.50Q611 561 611 503Q611 445 589.50 394.50Q568 344 529.50 305.50Q491 267 440.50 245.50Q390 224 332 224Q274 224 223.50 245.50Q173 267 134.50 305.50Q96 344 74.50 394.50Q53 445 53 503Q53 561 74.50 611.50Q96 662 134.50 700.50Q173 739 223.50 760.50Q274 782 332 782M266 523Q300 523 314.50 522Q329 521 336.50 519.50Q344 518 355 516Q408 512 427.50 498Q447 484 452 457L467 392Q469 380 472 374Q475 368 482 368Q489 368 493 374L501 364Q493 355 480 350.50Q467 346 449 346Q417 346 400.50 357Q384 368 380 389L365 462Q362 481 354.50 491Q347 501 328.50 504.50Q310 508 268 508L266 523M332 750Q266 750 212.50 716.50Q159 683 127 627Q95 571 95 503Q95 436 127 379.50Q159 323 212.50 289.50Q266 256 332 256Q398 256 452 289.50Q506 323 537.50 379.50Q569 436 569 503Q569 571 537.50 627Q506 683 452 716.50Q398 750 332 750M344 676Q409 676 437.50 655.50Q466 635 466 597Q466 580 454.50 561Q443 542 412 528Q381 514 322 511L261 508Q261 508 261 516Q261 524 261 524L314 524Q352 524 367 542Q382 560 382 591Q382 626 369.50 643.50Q357 661 328 661Q313 661 307.50 655Q302 649 302 633L302 404Q302 381 306.50 375Q311 369 325 367L325 352Q313 352 296.50 352.50Q280 353 263 353Q243 353 225 352.50Q207 352 196 352L196 367Q210 369 214.50 375Q219 381 219 404L219 623Q219 647 214.50 653.50Q210 660 196 661L196 676Q207 675 224.50 675Q242 675 258 675Q286 675 310 675.50Q334 676 344 676Z"  horiz-adv-x="665" vert-adv-y="1000"  />

      
      <glyph glyph-name="uniaf" unicode="&#xaf;" d="M386 712L386 687L50 687L50 712L386 712Z"  horiz-adv-x="436" vert-adv-y="1000"  />

      
      <glyph glyph-name="unib0" unicode="&#xb0;" d="M155 820Q204 820 240.50 788Q277 756 277 700Q277 644 240.50 611.50Q204 579 155 579Q107 579 70.50 611.50Q34 644 34 700Q34 756 70.50 788Q107 820 155 820M155 803Q133 803 110.50 791Q88 779 73.50 756Q59 733 59 699Q59 664 73.50 641Q88 618 110.50 607Q133 596 155 596Q178 596 200 607Q222 618 237 641Q252 664 252 699Q252 733 237 756Q222 779 200 791Q178 803 155 803Z"  horiz-adv-x="311" vert-adv-y="1000"  />

      
      <glyph glyph-name="unib1" unicode="&#xb1;" d="M541 30L541 0L40 0L40 30L541 30M306 606L306 370L538 370L538 340L306 340L306 105L270 105L270 340L37 340L37 370L270 370L270 606L306 606Z"  horiz-adv-x="579" vert-adv-y="1000"  />

      
      <glyph glyph-name="unib2" unicode="&#xb2;" d="M179 755Q227 755 258.50 737Q290 719 290 681Q290 653 274 631.50Q258 610 233.50 591.50Q209 573 180 554.50Q151 536 125 515L260 515Q284 515 292 523.50Q300 532 307 549L324 546Q317 513 313.50 486Q310 459 309 435Q300 437 290.50 437.50Q281 438 271 438L27 438L27 458Q48 476 77 497.50Q106 519 133 544Q160 569 178.50 598.50Q197 628 197 663Q197 689 181.50 702Q166 715 136 715Q109 715 87.50 703.50Q66 692 49 667L34 675Q52 706 86.50 730.50Q121 755 179 755Z"  horiz-adv-x="351" vert-adv-y="1000"  />

      
      <glyph glyph-name="unib3" unicode="&#xb3;" d="M171 756Q220 756 252.50 737.50Q285 719 285 684Q285 649 253.50 624.50Q222 600 168 589Q205 591 235 580Q265 569 283.50 548Q302 527 302 498Q302 462 277.50 434.50Q253 407 212 388.50Q171 370 122 360Q73 350 24 348L24 365Q78 371 120 389Q162 407 186.50 436Q211 465 211 503Q211 534 195 555Q179 576 150 578Q139 573 130.50 568.50Q122 564 114 564Q98 564 98 576Q98 587 111 589Q124 591 142 590Q173 604 182.50 626Q192 648 192 663Q192 688 175.50 703Q159 718 129 718Q102 718 79 705Q56 692 41 668L26 676Q43 708 77.50 732Q112 756 171 756Z"  horiz-adv-x="330" vert-adv-y="1000"  />

      
      <glyph glyph-name="unib4" unicode="&#xb4;" d="M227 817Q244 804 245 781Q246 758 230 738Q214 718 191 702Q168 686 136.50 663Q105 640 61 599L50 608Q80 662 94 698.50Q108 735 118 761Q128 787 145 806Q160 826 184.50 829.50Q209 833 227 817Z"  horiz-adv-x="296" vert-adv-y="1000"  />

      
      <glyph glyph-name="unib6" unicode="&#xb6;" d="M421 709Q498 709 563.50 706.50Q629 704 692 708L692 689Q646 687 633.50 670.50Q621 654 621 621L621-75Q621-111 626.50-129Q632-147 648-153Q664-159 696-161L696-181Q665-179 617.50-178.50Q570-178 521-178Q472-178 429.50-178.50Q387-179 361-181L361-161Q403-159 425-150Q447-141 454.50-120.50Q462-100 462-65L462-13Q343-13 261 15Q179 43 128.50 93.50Q78 144 55.50 212Q33 280 33 360Q33 462 79 541Q125 620 212 664.50Q299 709 421 709M463 656Q458 656 448.50 617Q439 578 430 513.50Q421 449 419 372Q337 372 269.50 368Q202 364 162 359Q122 354 122 351Q122 348 162 343Q202 338 269.50 334.50Q337 331 419 331Q420 252 429.50 187.50Q439 123 448.50 85.50Q458 48 463 48Q463 48 463 80.50Q463 113 463 167Q463 221 463 285.50Q463 350 463 415Q463 480 463 534Q463 588 463 621.50Q463 655 463 656Z"  horiz-adv-x="732" vert-adv-y="1000"  />

      
      <glyph glyph-name="unib7" unicode="&#xb7;" d="M139 358Q178 358 201 337.50Q224 317 224 281Q224 245 201 224.50Q178 204 139 204Q100 204 77 224.50Q54 245 54 281Q54 317 77 337.50Q100 358 139 358Z"  horiz-adv-x="278" vert-adv-y="1000"  />

      
      <glyph glyph-name="unib8" unicode="&#xb8;" d="M158 2L137-65Q153-59 171-56Q189-53 208-53Q242-53 259.50-67.50Q277-82 277-107Q277-135 257.50-153Q238-171 206-179.50Q174-188 137-188Q110-188 88-184.50Q66-181 50-176L55-158Q61-159 73-160.50Q85-162 99-162Q116-162 132.50-158Q149-154 160.50-145Q172-136 172-121Q172-95 139-95Q131-95 119.50-96.50Q108-98 99-102L131 2L158 2Z"  horiz-adv-x="327" vert-adv-y="1000"  />

      
      <glyph glyph-name="unib9" unicode="&#xb9;" d="M203 753L203 507Q203 478 218.50 468Q234 458 270 458L270 437Q253 438 221 438.50Q189 439 155 439Q120 439 87 438.50Q54 438 36 437L36 458Q71 458 90.50 468Q110 478 110 507L110 636Q110 680 93 690.50Q76 701 29 701L29 722Q91 723 130.50 730Q170 737 203 753Z"  horiz-adv-x="283" vert-adv-y="1000"  />

      
      <glyph glyph-name="uniba" unicode="&#xba;" d="M234 722Q289 722 333 701.50Q377 681 403 641Q429 601 429 541Q429 482 403 441.50Q377 401 333 380.50Q289 360 234 360Q180 360 135.50 380.50Q91 401 65 441.50Q39 482 39 541Q39 601 65 641Q91 681 135.50 701.50Q180 722 234 722M234 704Q208 704 190.50 666Q173 628 173 541Q173 454 190.50 416Q208 378 234 378Q260 378 278 416Q296 454 296 541Q296 628 278 666Q260 704 234 704Z"  horiz-adv-x="468" vert-adv-y="1000"  />

      
      <glyph glyph-name="unibb" unicode="&#xbb;" d="M268 532Q326 452 392.50 384.50Q459 317 543 264L543 252Q459 199 392.50 131.50Q326 64 268-16L252-10Q264 28 280 66.50Q296 105 314.50 140.50Q333 176 353.50 206Q374 236 394 257Q374 278 353.50 308Q333 338 314.50 374Q296 410 280 449.50Q264 489 252 527L268 532M68 508Q121 435 181.50 373.50Q242 312 320 264L320 252Q242 205 181.50 143Q121 81 68 8L53 14Q67 62 87 108Q107 154 130 192.50Q153 231 176 257Q153 282 130 321.50Q107 361 87 408Q67 455 53 503L68 508Z"  horiz-adv-x="569" vert-adv-y="1000"  />

      
      <glyph glyph-name="unibc" unicode="&#xbc;" d="M663 824L682 811L97-55L78-42L663 824M218 753L218 507Q218 478 233.50 468Q249 458 285 458L285 437Q268 438 236 438.50Q204 439 170 439Q135 439 102 438.50Q69 438 51 437L51 458Q86 458 105.50 468Q125 478 125 507L125 636Q125 680 108 690.50Q91 701 44 701L44 722Q106 723 145.50 730Q185 737 218 753M540 312L548 297L322 47L339 76L574 76Q599 76 607 84.50Q615 93 622 110L639 107Q635 93 632 75Q629 57 627.50 41Q626 25 625 15Q616 17 606.50 17.50Q597 18 587 18L293 18L293 39L540 312M561 312L561-99L488-99L488 243L540 312L561 312Z"  horiz-adv-x="709" vert-adv-y="1000"  />

      
      <glyph glyph-name="unibd" unicode="&#xbd;" d="M647 824L666 811L81-55L62-42L647 824M220 753L220 507Q220 478 235.50 468Q251 458 287 458L287 437Q270 438 238 438.50Q206 439 172 439Q137 439 104 438.50Q71 438 53 437L53 458Q88 458 107.50 468Q127 478 127 507L127 636Q127 680 110 690.50Q93 701 46 701L46 722Q108 723 147.50 730Q187 737 220 753M541 318Q589 318 620.50 300Q652 282 652 244Q652 216 636 194.50Q620 173 595.50 154.50Q571 136 542 117.50Q513 99 487 78L622 78Q646 78 654 86.50Q662 95 669 112L686 109Q679 76 675.50 49Q672 22 671-2Q662 0 652.50 0.50Q643 1 633 1L389 1L389 21Q410 39 439 60.50Q468 82 495 107Q522 132 540.50 161.50Q559 191 559 226Q559 252 543.50 265Q528 278 498 278Q471 278 449.50 266.50Q428 255 411 230L396 238Q414 269 448.50 293.50Q483 318 541 318Z"  horiz-adv-x="720" vert-adv-y="1000"  />

      
      <glyph glyph-name="unibe" unicode="&#xbe;" d="M705 824L724 811L139-55L120-42L705 824M192 756Q241 756 273.50 737.50Q306 719 306 684Q306 649 274.50 624.50Q243 600 189 589Q226 591 256 580Q286 569 304.50 548Q323 527 323 498Q323 462 298.50 434.50Q274 407 233 388.50Q192 370 143 360Q94 350 45 348L45 365Q99 371 141 389Q183 407 207.50 436Q232 465 232 503Q232 534 216 555Q200 576 171 578Q160 573 151.50 568.50Q143 564 135 564Q119 564 119 576Q119 587 132 589Q145 591 163 590Q194 604 203.50 626Q213 648 213 663Q213 688 196.50 703Q180 718 150 718Q123 718 100 705Q77 692 62 668L47 676Q64 708 98.50 732Q133 756 192 756M586 312L594 297L368 47L385 76L620 76Q645 76 653 84.50Q661 93 668 110L685 107Q681 93 678 75Q675 57 673.50 41Q672 25 671 15Q662 17 652.50 17.50Q643 18 633 18L339 18L339 39L586 312M607 312L607-99L534-99L534 243L586 312L607 312Z"  horiz-adv-x="752" vert-adv-y="1000"  />

      
      <glyph glyph-name="unibf" unicode="&#xbf;" d="M304 323L304 185Q248 161 219.50 131.50Q191 102 181.50 67.50Q172 33 172-5Q172-91 206-129.50Q240-168 294-168Q321-168 345-162.50Q369-157 381-146Q354-137 339.50-119.50Q325-102 325-73Q325-42 347.50-21.50Q370-1 405-1Q437-1 456-21.50Q475-42 475-70Q475-101 459-121Q443-141 418-155Q395-169 357.50-178.50Q320-188 269-188Q198-188 143.50-167Q89-146 59-106.50Q29-67 29-12Q29 40 61 81Q93 122 150.50 150.50Q208 179 284 194L284 323L304 323M293 532Q332 532 355 511.50Q378 491 378 455Q378 419 355 398.50Q332 378 293 378Q254 378 231 398.50Q208 419 208 455Q208 491 231 511.50Q254 532 293 532Z"  horiz-adv-x="503" vert-adv-y="1000"  />

      
      <glyph glyph-name="unic0" unicode="&#xc0;" d="M368 710L611 84Q625 48 642.50 34.50Q660 21 674 20L674 0Q644 2 603.50 2.50Q563 3 522 3Q476 3 435 2.50Q394 2 370 0L370 20Q421 22 434.50 37.50Q448 53 428 104L258 569L276 595L124 199Q102 144 97.50 109Q93 74 102.50 55Q112 36 133.50 28.50Q155 21 185 20L185 0Q152 2 122 2.50Q92 3 61 3Q39 3 19.50 2.50Q0 2-15 0L-15 20Q6 24 28 47Q50 70 71 125L299 710Q315 709 333.50 709Q352 709 368 710M438 288L438 268L140 268L150 288L438 288M238 934Q261 922 280 901.50Q299 881 326 852Q353 823 400 784L393 772Q338 793 299.50 803Q261 813 234 819.50Q207 826 185 838Q162 851 154.50 872Q147 893 157 912Q169 935 193 940.50Q217 946 238 934Z"  horiz-adv-x="667" vert-adv-y="1000"  />

      
      <glyph glyph-name="unic1" unicode="&#xc1;" d="M368 710L611 84Q625 48 642.50 34.50Q660 21 674 20L674 0Q644 2 603.50 2.50Q563 3 522 3Q476 3 435 2.50Q394 2 370 0L370 20Q421 22 434.50 37.50Q448 53 428 104L258 569L276 595L124 199Q102 144 97.50 109Q93 74 102.50 55Q112 36 133.50 28.50Q155 21 185 20L185 0Q152 2 122 2.50Q92 3 61 3Q39 3 19.50 2.50Q0 2-15 0L-15 20Q6 24 28 47Q50 70 71 125L299 710Q315 709 333.50 709Q352 709 368 710M438 288L438 268L140 268L150 288L438 288M422 934Q443 946 467.50 940.50Q492 935 503 912Q513 893 505.50 872Q498 851 475 838Q453 826 426 819.50Q399 813 361 803Q323 793 267 772L260 784Q308 823 334.50 852Q361 881 380 901.50Q399 922 422 934Z"  horiz-adv-x="667" vert-adv-y="1000"  />

      
      <glyph glyph-name="unic2" unicode="&#xc2;" d="M368 710L611 84Q625 48 642.50 34.50Q660 21 674 20L674 0Q644 2 603.50 2.50Q563 3 522 3Q476 3 435 2.50Q394 2 370 0L370 20Q421 22 434.50 37.50Q448 53 428 104L258 569L276 595L124 199Q102 144 97.50 109Q93 74 102.50 55Q112 36 133.50 28.50Q155 21 185 20L185 0Q152 2 122 2.50Q92 3 61 3Q39 3 19.50 2.50Q0 2-15 0L-15 20Q6 24 28 47Q50 70 71 125L299 710Q315 709 333.50 709Q352 709 368 710M438 288L438 268L140 268L150 288L438 288M342 940Q372 897 426.50 854.50Q481 812 547 784L542 769Q477 781 413.50 799Q350 817 313 834Q282 817 229.50 799Q177 781 124 769L119 784Q184 812 238.50 854Q293 896 324 940L342 940Z"  horiz-adv-x="667" vert-adv-y="1000"  />

      
      <glyph glyph-name="unic3" unicode="&#xc3;" d="M368 710L611 84Q625 48 642.50 34.50Q660 21 674 20L674 0Q644 2 603.50 2.50Q563 3 522 3Q476 3 435 2.50Q394 2 370 0L370 20Q421 22 434.50 37.50Q448 53 428 104L258 569L276 595L124 199Q102 144 97.50 109Q93 74 102.50 55Q112 36 133.50 28.50Q155 21 185 20L185 0Q152 2 122 2.50Q92 3 61 3Q39 3 19.50 2.50Q0 2-15 0L-15 20Q6 24 28 47Q50 70 71 125L299 710Q315 709 333.50 709Q352 709 368 710M438 288L438 268L140 268L150 288L438 288M245 924Q280 924 306.50 913Q333 902 355.50 888Q378 874 401.50 863.50Q425 853 455 853Q479 853 500 865.50Q521 878 538 907L552 902Q539 833 501.50 800.50Q464 768 419 768Q384 768 357.50 778.50Q331 789 308 803.50Q285 818 261.50 828.50Q238 839 208 839Q184 839 163 826.50Q142 814 125 784L111 789Q125 859 162.50 891.50Q200 924 245 924Z"  horiz-adv-x="667" vert-adv-y="1000"  />

      
      <glyph glyph-name="unic4" unicode="&#xc4;" d="M368 710L611 84Q625 48 642.50 34.50Q660 21 674 20L674 0Q644 2 603.50 2.50Q563 3 522 3Q476 3 435 2.50Q394 2 370 0L370 20Q421 22 434.50 37.50Q448 53 428 104L258 569L276 595L124 199Q102 144 97.50 109Q93 74 102.50 55Q112 36 133.50 28.50Q155 21 185 20L185 0Q152 2 122 2.50Q92 3 61 3Q39 3 19.50 2.50Q0 2-15 0L-15 20Q6 24 28 47Q50 70 71 125L299 710Q315 709 333.50 709Q352 709 368 710M438 288L438 268L140 268L150 288L438 288M453 917Q483 917 505.50 894Q528 871 528 841Q528 810 505.50 788Q483 766 453 766Q422 766 399.50 788Q377 810 377 842Q377 872 399.50 894.50Q422 917 453 917M213 917Q243 917 266 894Q289 871 289 841Q289 810 266 788Q243 766 213 766Q182 766 160 788Q138 810 138 842Q138 872 160 894.50Q182 917 213 917Z"  horiz-adv-x="667" vert-adv-y="1000"  />

      
      <glyph glyph-name="unic5" unicode="&#xc5;" d="M368 710L611 84Q625 48 642.50 34.50Q660 21 674 20L674 0Q644 2 603.50 2.50Q563 3 522 3Q476 3 435 2.50Q394 2 370 0L370 20Q421 22 434.50 37.50Q448 53 428 104L258 569L276 595L124 199Q102 144 97.50 109Q93 74 102.50 55Q112 36 133.50 28.50Q155 21 185 20L185 0Q152 2 122 2.50Q92 3 61 3Q39 3 19.50 2.50Q0 2-15 0L-15 20Q6 24 28 47Q50 70 71 125L299 710Q315 709 333.50 709Q352 709 368 710M438 288L438 268L140 268L150 288L438 288M333 937Q377 937 409.50 911Q442 885 442 840Q442 795 409.50 768.50Q377 742 333 742Q290 742 257.50 768.50Q225 795 225 840Q225 885 257.50 911Q290 937 333 937M333 916Q305 916 279 896Q253 876 253 839Q253 801 279 782Q305 763 333 763Q362 763 388 782Q414 801 414 839Q414 876 388 896Q362 916 333 916Z"  horiz-adv-x="667" vert-adv-y="1000"  />

      
      <glyph glyph-name="unic6" unicode="&#xc6;" d="M484 772L93 104Q65 57 79 39.50Q93 22 144 20L144 0Q129 2 104.50 2.50Q80 3 53 3Q35 3 16.50 2.50Q-2 2-14 0L-14 20Q2 21 18 34.50Q34 48 55 84L460 772L484 772M824 708Q820 668 818.50 630Q817 592 817 572Q817 552 818 534Q819 516 820 504L797 504Q789 573 772 612.50Q755 652 729.50 668.50Q704 685 669 685L636 685Q605 685 588.50 679.50Q572 674 566.50 656.50Q561 639 561 602L561 106Q561 70 566.50 52Q572 34 588.50 28.50Q605 23 636 23L685 23Q719 23 746 42Q773 61 791 104.50Q809 148 817 224L840 224Q837 192 837 140Q837 119 838 80.50Q839 42 844 0Q795 2 733 2.50Q671 3 623 3Q593 3 544 3Q495 3 439.50 2.50Q384 2 335 0L335 20Q364 22 378 28Q392 34 397 52Q402 70 402 106L402 602Q402 639 396.50 656.50Q391 674 374.50 680.50Q358 687 327 688L327 708Q377 707 434 706Q491 705 541.50 705Q592 705 623 705Q667 705 723 705.50Q779 706 824 708M435 366L435 346L223 346L233 366L435 366M695 366Q695 366 695 356Q695 346 695 346L531 346Q531 346 531 356Q531 366 531 366L695 366M724 484Q720 433 720.50 406Q721 379 721 356Q721 333 722 306.50Q723 280 727 228L704 228Q700 257 692 284Q684 311 666.50 328.50Q649 346 614 346L614 366Q640 366 656 378Q672 390 680.50 409Q689 428 693.50 448Q698 468 701 484L724 484Z"  horiz-adv-x="889" vert-adv-y="1000"  />

      
      <glyph glyph-name="unic7" unicode="&#xc7;" d="M397 722Q463 722 505.50 702.50Q548 683 581 657Q601 642 611.50 653.50Q622 665 626 708L649 708Q647 669 646 613.50Q645 558 645 466L622 466Q617 512 609 544.50Q601 577 587 602Q573 627 547 647Q522 672 489 684Q456 696 420 696Q366 696 328 667.50Q290 639 266.50 590Q243 541 232 479.50Q221 418 221 352Q221 285 232.50 223.50Q244 162 268.50 114Q293 66 332 38Q371 10 424 10Q457 10 490.50 22.50Q524 35 548 59Q587 89 601 133.50Q615 178 622 252L645 252Q645 157 646 98.50Q647 40 649 0L626 0Q622 43 612.50 54Q603 65 581 51Q544 25 502.50 5.50Q461-14 396-14Q290-14 210.50 29Q131 72 87 153Q43 234 43 348Q43 460 88.50 544Q134 628 213.50 675Q293 722 397 722M413 5L391-65Q408-59 427.50-56Q447-53 468-53Q505-53 524-67.50Q543-82 543-107Q543-135 521-153Q499-171 463-179.50Q427-188 385-188Q356-188 332-184.50Q308-181 292-176L297-158Q304-159 317.50-160.50Q331-162 347-162Q368-162 389-158Q410-154 424-145Q438-136 438-121Q438-107 426-101Q414-95 392-95Q384-95 373-96.50Q362-98 353-102L386 5L413 5Z"  horiz-adv-x="705" vert-adv-y="1000"  />

      
      <glyph glyph-name="unic8" unicode="&#xc8;" d="M569 708Q565 664 563.50 623Q562 582 562 560Q562 540 563 522Q564 504 565 492L542 492Q532 565 511 607.50Q490 650 456.50 667.50Q423 685 378 685L337 685Q308 685 293 680Q278 675 273 660Q268 645 268 614L268 94Q268 63 273 48Q278 33 293 28Q308 23 337 23L386 23Q431 23 465.50 42.50Q500 62 524.50 109Q549 156 562 236L585 236Q582 204 582 152Q582 129 583 87Q584 45 589 0Q538 2 474 2.50Q410 3 360 3Q335 3 296 3Q257 3 212 2.50Q167 2 121 1.50Q75 1 34 0L34 20Q66 22 82 28Q98 34 103.50 52Q109 70 109 106L109 602Q109 639 103.50 656.50Q98 674 81.50 680.50Q65 687 34 688L34 708Q75 707 121 706.50Q167 706 212 705.50Q257 705 296 705Q335 705 360 705Q406 705 464.50 705.50Q523 706 569 708M413 366Q413 366 413 356Q413 346 413 346L238 346Q238 346 238 356Q238 366 238 366L413 366M442 498Q438 441 438.50 411Q439 381 439 356Q439 331 440 301Q441 271 445 214L422 214Q417 249 403.50 279Q390 309 365 327.50Q340 346 300 346L300 366Q330 366 351 378.50Q372 391 385.50 411.50Q399 432 407 455Q415 478 419 498L442 498M219 934Q242 922 261 901.50Q280 881 307 852Q334 823 381 784L374 772Q319 793 280.50 803Q242 813 215 819.50Q188 826 166 838Q143 851 135.50 872Q128 893 138 912Q150 935 174 940.50Q198 946 219 934Z"  horiz-adv-x="634" vert-adv-y="1000"  />

      
      <glyph glyph-name="unic9" unicode="&#xc9;" d="M569 708Q565 664 563.50 623Q562 582 562 560Q562 540 563 522Q564 504 565 492L542 492Q532 565 511 607.50Q490 650 456.50 667.50Q423 685 378 685L337 685Q308 685 293 680Q278 675 273 660Q268 645 268 614L268 94Q268 63 273 48Q278 33 293 28Q308 23 337 23L386 23Q431 23 465.50 42.50Q500 62 524.50 109Q549 156 562 236L585 236Q582 204 582 152Q582 129 583 87Q584 45 589 0Q538 2 474 2.50Q410 3 360 3Q335 3 296 3Q257 3 212 2.50Q167 2 121 1.50Q75 1 34 0L34 20Q66 22 82 28Q98 34 103.50 52Q109 70 109 106L109 602Q109 639 103.50 656.50Q98 674 81.50 680.50Q65 687 34 688L34 708Q75 707 121 706.50Q167 706 212 705.50Q257 705 296 705Q335 705 360 705Q406 705 464.50 705.50Q523 706 569 708M413 366Q413 366 413 356Q413 346 413 346L238 346Q238 346 238 356Q238 366 238 366L413 366M442 498Q438 441 438.50 411Q439 381 439 356Q439 331 440 301Q441 271 445 214L422 214Q417 249 403.50 279Q390 309 365 327.50Q340 346 300 346L300 366Q330 366 351 378.50Q372 391 385.50 411.50Q399 432 407 455Q415 478 419 498L442 498M403 934Q424 946 448.50 940.50Q473 935 484 912Q494 893 486.50 872Q479 851 456 838Q434 826 407 819.50Q380 813 342 803Q304 793 248 772L241 784Q289 823 315.50 852Q342 881 361 901.50Q380 922 403 934Z"  horiz-adv-x="634" vert-adv-y="1000"  />

      
      <glyph glyph-name="unica" unicode="&#xca;" d="M569 708Q565 664 563.50 623Q562 582 562 560Q562 540 563 522Q564 504 565 492L542 492Q532 565 511 607.50Q490 650 456.50 667.50Q423 685 378 685L337 685Q308 685 293 680Q278 675 273 660Q268 645 268 614L268 94Q268 63 273 48Q278 33 293 28Q308 23 337 23L386 23Q431 23 465.50 42.50Q500 62 524.50 109Q549 156 562 236L585 236Q582 204 582 152Q582 129 583 87Q584 45 589 0Q538 2 474 2.50Q410 3 360 3Q335 3 296 3Q257 3 212 2.50Q167 2 121 1.50Q75 1 34 0L34 20Q66 22 82 28Q98 34 103.50 52Q109 70 109 106L109 602Q109 639 103.50 656.50Q98 674 81.50 680.50Q65 687 34 688L34 708Q75 707 121 706.50Q167 706 212 705.50Q257 705 296 705Q335 705 360 705Q406 705 464.50 705.50Q523 706 569 708M413 366Q413 366 413 356Q413 346 413 346L238 346Q238 346 238 356Q238 366 238 366L413 366M442 498Q438 441 438.50 411Q439 381 439 356Q439 331 440 301Q441 271 445 214L422 214Q417 249 403.50 279Q390 309 365 327.50Q340 346 300 346L300 366Q330 366 351 378.50Q372 391 385.50 411.50Q399 432 407 455Q415 478 419 498L442 498M323 940Q353 897 407.50 854.50Q462 812 528 784L523 769Q458 781 394.50 799Q331 817 294 834Q263 817 210.50 799Q158 781 105 769L100 784Q165 812 219.50 854Q274 896 305 940L323 940Z"  horiz-adv-x="634" vert-adv-y="1000"  />

      
      <glyph glyph-name="unicb" unicode="&#xcb;" d="M569 708Q565 664 563.50 623Q562 582 562 560Q562 540 563 522Q564 504 565 492L542 492Q532 565 511 607.50Q490 650 456.50 667.50Q423 685 378 685L337 685Q308 685 293 680Q278 675 273 660Q268 645 268 614L268 94Q268 63 273 48Q278 33 293 28Q308 23 337 23L386 23Q431 23 465.50 42.50Q500 62 524.50 109Q549 156 562 236L585 236Q582 204 582 152Q582 129 583 87Q584 45 589 0Q538 2 474 2.50Q410 3 360 3Q335 3 296 3Q257 3 212 2.50Q167 2 121 1.50Q75 1 34 0L34 20Q66 22 82 28Q98 34 103.50 52Q109 70 109 106L109 602Q109 639 103.50 656.50Q98 674 81.50 680.50Q65 687 34 688L34 708Q75 707 121 706.50Q167 706 212 705.50Q257 705 296 705Q335 705 360 705Q406 705 464.50 705.50Q523 706 569 708M413 366Q413 366 413 356Q413 346 413 346L238 346Q238 346 238 356Q238 366 238 366L413 366M442 498Q438 441 438.50 411Q439 381 439 356Q439 331 440 301Q441 271 445 214L422 214Q417 249 403.50 279Q390 309 365 327.50Q340 346 300 346L300 366Q330 366 351 378.50Q372 391 385.50 411.50Q399 432 407 455Q415 478 419 498L442 498M434 917Q464 917 486.50 894Q509 871 509 841Q509 810 486.50 788Q464 766 434 766Q403 766 380.50 788Q358 810 358 842Q358 872 380.50 894.50Q403 917 434 917M194 917Q224 917 247 894Q270 871 270 841Q270 810 247 788Q224 766 194 766Q163 766 141 788Q119 810 119 842Q119 872 141 894.50Q163 917 194 917Z"  horiz-adv-x="634" vert-adv-y="1000"  />

      
      <glyph glyph-name="unicc" unicode="&#xcc;" d="M343 708L343 688Q311 687 294.50 680.50Q278 674 273 656.50Q268 639 268 602L268 106Q268 70 273.50 52Q279 34 295 28Q311 22 343 20L343 0Q316 2 275 2.50Q234 3 192 3Q143 3 101.50 2.50Q60 2 34 0L34 20Q66 22 82 28Q98 34 103.50 52Q109 70 109 106L109 602Q109 639 103.50 656.50Q98 674 81.50 680.50Q65 687 34 688L34 708Q60 707 101.50 706Q143 705 192 705Q234 705 275 706Q316 707 343 708M97 934Q120 922 139 901.50Q158 881 185 852Q212 823 259 784L252 772Q197 793 158.50 803Q120 813 93 819.50Q66 826 44 838Q21 851 13.50 872Q6 893 16 912Q28 935 52 940.50Q76 946 97 934Z"  horiz-adv-x="376" vert-adv-y="1000"  />

      
      <glyph glyph-name="unicd" unicode="&#xcd;" d="M343 708L343 688Q311 687 294.50 680.50Q278 674 273 656.50Q268 639 268 602L268 106Q268 70 273.50 52Q279 34 295 28Q311 22 343 20L343 0Q316 2 275 2.50Q234 3 192 3Q143 3 101.50 2.50Q60 2 34 0L34 20Q66 22 82 28Q98 34 103.50 52Q109 70 109 106L109 602Q109 639 103.50 656.50Q98 674 81.50 680.50Q65 687 34 688L34 708Q60 707 101.50 706Q143 705 192 705Q234 705 275 706Q316 707 343 708M281 934Q302 946 326.50 940.50Q351 935 362 912Q372 893 364.50 872Q357 851 334 838Q312 826 285 819.50Q258 813 220 803Q182 793 126 772L119 784Q167 823 193.50 852Q220 881 239 901.50Q258 922 281 934Z"  horiz-adv-x="376" vert-adv-y="1000"  />

      
      <glyph glyph-name="unice" unicode="&#xce;" d="M343 708L343 688Q311 687 294.50 680.50Q278 674 273 656.50Q268 639 268 602L268 106Q268 70 273.50 52Q279 34 295 28Q311 22 343 20L343 0Q316 2 275 2.50Q234 3 192 3Q143 3 101.50 2.50Q60 2 34 0L34 20Q66 22 82 28Q98 34 103.50 52Q109 70 109 106L109 602Q109 639 103.50 656.50Q98 674 81.50 680.50Q65 687 34 688L34 708Q60 707 101.50 706Q143 705 192 705Q234 705 275 706Q316 707 343 708M201 940Q231 897 285.50 854.50Q340 812 406 784L401 769Q336 781 272.50 799Q209 817 172 834Q141 817 88.50 799Q36 781-17 769L-22 784Q43 812 97.50 854Q152 896 183 940L201 940Z"  horiz-adv-x="376" vert-adv-y="1000"  />

      
      <glyph glyph-name="unicf" unicode="&#xcf;" d="M343 708L343 688Q311 687 294.50 680.50Q278 674 273 656.50Q268 639 268 602L268 106Q268 70 273.50 52Q279 34 295 28Q311 22 343 20L343 0Q316 2 275 2.50Q234 3 192 3Q143 3 101.50 2.50Q60 2 34 0L34 20Q66 22 82 28Q98 34 103.50 52Q109 70 109 106L109 602Q109 639 103.50 656.50Q98 674 81.50 680.50Q65 687 34 688L34 708Q60 707 101.50 706Q143 705 192 705Q234 705 275 706Q316 707 343 708M312 917Q342 917 364.50 894Q387 871 387 841Q387 810 364.50 788Q342 766 312 766Q281 766 258.50 788Q236 810 236 842Q236 872 258.50 894.50Q281 917 312 917M72 917Q102 917 125 894Q148 871 148 841Q148 810 125 788Q102 766 72 766Q41 766 19 788Q-3 810-3 842Q-3 872 19 894.50Q41 917 72 917Z"  horiz-adv-x="376" vert-adv-y="1000"  />

      
      <glyph glyph-name="unid0" unicode="&#xd0;" d="M343 708Q540 708 636 618.50Q732 529 732 362Q732 253 685 171.50Q638 90 548.50 45Q459 0 334 0Q318 0 292 1Q266 2 238 2.50Q210 3 188 3Q144 3 101.50 2.50Q59 2 34 0L34 20Q66 22 82 28Q98 34 103.50 52Q109 70 109 106L109 602Q109 639 103.50 656.50Q98 674 81.50 680.50Q65 687 34 688L34 708Q59 707 101.50 705.50Q144 704 186 705Q222 706 267.50 707Q313 708 343 708M342 690Q296 690 282 673Q268 656 268 604L268 104Q268 52 282.50 35Q297 18 343 18Q427 18 475.50 57.50Q524 97 545 173Q566 249 566 358Q566 470 543.50 543.50Q521 617 472 653.50Q423 690 342 690M392 366L392 346L8 346L8 366L392 366Z"  horiz-adv-x="776" vert-adv-y="1000"  />

      
      <glyph glyph-name="unid1" unicode="&#xd1;" d="M693 708L693 688Q661 684 645 671.50Q629 659 623.50 632Q618 605 618 556L618-2Q606-1 593.50-1Q581-1 567-2L133 548L133 164Q133 109 139 79.50Q145 50 165.50 37.50Q186 25 230 20L230 0Q211 2 180 2.50Q149 3 122 3Q99 3 75 2.50Q51 2 35 0L35 20Q67 25 83 37Q99 49 104.50 76.50Q110 104 110 152L110 602Q110 639 104.50 656.50Q99 674 82.50 680.50Q66 687 35 688L35 708Q51 707 75 706Q99 705 122 705Q146 705 168 706Q190 707 208 708L595 231L595 544Q595 599 589 628.50Q583 658 562.50 671Q542 684 498 688L498 708Q517 707 548 706Q579 705 606 705Q630 705 653.50 706Q677 707 693 708M291 924Q326 924 352.50 913Q379 902 401.50 888Q424 874 447.50 863.50Q471 853 501 853Q525 853 546 865.50Q567 878 584 907L598 902Q585 833 547.50 800.50Q510 768 465 768Q430 768 403.50 778.50Q377 789 354 803.50Q331 818 307.50 828.50Q284 839 254 839Q230 839 209 826.50Q188 814 171 784L157 789Q171 859 208.50 891.50Q246 924 291 924Z"  horiz-adv-x="722" vert-adv-y="1000"  />

      
      <glyph glyph-name="unid2" unicode="&#xd2;" d="M397 722Q503 722 582.50 679Q662 636 706 555.50Q750 475 750 360Q750 248 705 164Q660 80 579.50 33Q499-14 396-14Q290-14 210.50 29Q131 72 87 153Q43 234 43 348Q43 460 88.50 544Q134 628 213.50 675Q293 722 397 722M393 704Q337 704 295.50 659Q254 614 231.50 535Q209 456 209 352Q209 246 234.50 167.50Q260 89 303.50 46.50Q347 4 400 4Q456 4 497.50 49Q539 94 561.50 173.50Q584 253 584 356Q584 463 558.50 541Q533 619 489.50 661.50Q446 704 393 704M300 934Q323 922 342 901.50Q361 881 388 852Q415 823 462 784L455 772Q400 793 361.50 803Q323 813 296 819.50Q269 826 247 838Q224 851 216.50 872Q209 893 219 912Q231 935 255 940.50Q279 946 300 934Z"  horiz-adv-x="793" vert-adv-y="1000"  />

      
      <glyph glyph-name="unid3" unicode="&#xd3;" d="M397 722Q503 722 582.50 679Q662 636 706 555.50Q750 475 750 360Q750 248 705 164Q660 80 579.50 33Q499-14 396-14Q290-14 210.50 29Q131 72 87 153Q43 234 43 348Q43 460 88.50 544Q134 628 213.50 675Q293 722 397 722M393 704Q337 704 295.50 659Q254 614 231.50 535Q209 456 209 352Q209 246 234.50 167.50Q260 89 303.50 46.50Q347 4 400 4Q456 4 497.50 49Q539 94 561.50 173.50Q584 253 584 356Q584 463 558.50 541Q533 619 489.50 661.50Q446 704 393 704M484 934Q505 946 529.50 940.50Q554 935 565 912Q575 893 567.50 872Q560 851 537 838Q515 826 488 819.50Q461 813 423 803Q385 793 329 772L322 784Q370 823 396.50 852Q423 881 442 901.50Q461 922 484 934Z"  horiz-adv-x="793" vert-adv-y="1000"  />

      
      <glyph glyph-name="unid4" unicode="&#xd4;" d="M397 722Q503 722 582.50 679Q662 636 706 555.50Q750 475 750 360Q750 248 705 164Q660 80 579.50 33Q499-14 396-14Q290-14 210.50 29Q131 72 87 153Q43 234 43 348Q43 460 88.50 544Q134 628 213.50 675Q293 722 397 722M393 704Q337 704 295.50 659Q254 614 231.50 535Q209 456 209 352Q209 246 234.50 167.50Q260 89 303.50 46.50Q347 4 400 4Q456 4 497.50 49Q539 94 561.50 173.50Q584 253 584 356Q584 463 558.50 541Q533 619 489.50 661.50Q446 704 393 704M404 940Q434 897 488.50 854.50Q543 812 609 784L604 769Q539 781 475.50 799Q412 817 375 834Q344 817 291.50 799Q239 781 186 769L181 784Q246 812 300.50 854Q355 896 386 940L404 940Z"  horiz-adv-x="793" vert-adv-y="1000"  />

      
      <glyph glyph-name="unid5" unicode="&#xd5;" d="M397 722Q503 722 582.50 679Q662 636 706 555.50Q750 475 750 360Q750 248 705 164Q660 80 579.50 33Q499-14 396-14Q290-14 210.50 29Q131 72 87 153Q43 234 43 348Q43 460 88.50 544Q134 628 213.50 675Q293 722 397 722M393 704Q337 704 295.50 659Q254 614 231.50 535Q209 456 209 352Q209 246 234.50 167.50Q260 89 303.50 46.50Q347 4 400 4Q456 4 497.50 49Q539 94 561.50 173.50Q584 253 584 356Q584 463 558.50 541Q533 619 489.50 661.50Q446 704 393 704M307 924Q342 924 368.50 913Q395 902 417.50 888Q440 874 463.50 863.50Q487 853 517 853Q541 853 562 865.50Q583 878 600 907L614 902Q601 833 563.50 800.50Q526 768 481 768Q446 768 419.50 778.50Q393 789 370 803.50Q347 818 323.50 828.50Q300 839 270 839Q246 839 225 826.50Q204 814 187 784L173 789Q187 859 224.50 891.50Q262 924 307 924Z"  horiz-adv-x="793" vert-adv-y="1000"  />

      
      <glyph glyph-name="unid6" unicode="&#xd6;" d="M397 722Q503 722 582.50 679Q662 636 706 555.50Q750 475 750 360Q750 248 705 164Q660 80 579.50 33Q499-14 396-14Q290-14 210.50 29Q131 72 87 153Q43 234 43 348Q43 460 88.50 544Q134 628 213.50 675Q293 722 397 722M393 704Q337 704 295.50 659Q254 614 231.50 535Q209 456 209 352Q209 246 234.50 167.50Q260 89 303.50 46.50Q347 4 400 4Q456 4 497.50 49Q539 94 561.50 173.50Q584 253 584 356Q584 463 558.50 541Q533 619 489.50 661.50Q446 704 393 704M515 917Q545 917 567.50 894Q590 871 590 841Q590 810 567.50 788Q545 766 515 766Q484 766 461.50 788Q439 810 439 842Q439 872 461.50 894.50Q484 917 515 917M275 917Q305 917 328 894Q351 871 351 841Q351 810 328 788Q305 766 275 766Q244 766 222 788Q200 810 200 842Q200 872 222 894.50Q244 917 275 917Z"  horiz-adv-x="793" vert-adv-y="1000"  />

      
      <glyph glyph-name="unid7" unicode="&#xd7;" d="M73 552L248 377L421 550L443 528L270 356L443 183L421 161L248 334L74 160L52 182L226 355L51 530L73 552Z"  horiz-adv-x="493" vert-adv-y="1000"  />

      
      <glyph glyph-name="unid8" unicode="&#xd8;" d="M397 722Q503 722 582.50 679Q662 636 706 555.50Q750 475 750 360Q750 248 705 164Q660 80 579.50 33Q499-14 396-14Q290-14 210.50 29Q131 72 87 153Q43 234 43 348Q43 460 88.50 544Q134 628 213.50 675Q293 722 397 722M393 704Q337 704 295.50 659Q254 614 231.50 535Q209 456 209 352Q209 246 234.50 167.50Q260 89 303.50 46.50Q347 4 400 4Q456 4 497.50 49Q539 94 561.50 173.50Q584 253 584 356Q584 463 558.50 541Q533 619 489.50 661.50Q446 704 393 704M559 637L574 617L231 76L213 94L559 637M201 94L219 76L110-79L89-65L201 94M663 779L682 766L581 617L566 637L663 779Z"  horiz-adv-x="793" vert-adv-y="1000"  />

      
      <glyph glyph-name="unid9" unicode="&#xd9;" d="M671 708L671 688Q639 684 622.50 671.50Q606 659 601 632Q596 605 596 556L596 291Q596 226 587 172Q578 118 555 79Q529 36 479 11Q429-14 352-14Q306-14 258-3.50Q210 7 172 36Q140 63 123 97Q106 131 100 177.50Q94 224 94 288L94 602Q94 639 88.50 656.50Q83 674 67 680.50Q51 687 19 688L19 708Q44 707 86.50 706Q129 705 175 705Q221 705 263.50 706Q306 707 334 708L334 688Q300 687 282.50 680.50Q265 674 259 656.50Q253 639 253 602L253 225Q253 175 259.50 136.50Q266 98 281.50 72.50Q297 47 324 34Q351 21 391 21Q461 21 500.50 54Q540 87 556.50 145.50Q573 204 573 280L573 544Q573 599 566 628.50Q559 658 538.50 671Q518 684 476 688L476 708Q495 707 526 706Q557 705 584 705Q608 705 631.50 706Q655 707 671 708M262 934Q285 922 304 901.50Q323 881 350 852Q377 823 424 784L417 772Q362 793 323.50 803Q285 813 258 819.50Q231 826 209 838Q186 851 178.50 872Q171 893 181 912Q193 935 217 940.50Q241 946 262 934Z"  horiz-adv-x="689" vert-adv-y="1000"  />

      
      <glyph glyph-name="unida" unicode="&#xda;" d="M671 708L671 688Q639 684 622.50 671.50Q606 659 601 632Q596 605 596 556L596 291Q596 226 587 172Q578 118 555 79Q529 36 479 11Q429-14 352-14Q306-14 258-3.50Q210 7 172 36Q140 63 123 97Q106 131 100 177.50Q94 224 94 288L94 602Q94 639 88.50 656.50Q83 674 67 680.50Q51 687 19 688L19 708Q44 707 86.50 706Q129 705 175 705Q221 705 263.50 706Q306 707 334 708L334 688Q300 687 282.50 680.50Q265 674 259 656.50Q253 639 253 602L253 225Q253 175 259.50 136.50Q266 98 281.50 72.50Q297 47 324 34Q351 21 391 21Q461 21 500.50 54Q540 87 556.50 145.50Q573 204 573 280L573 544Q573 599 566 628.50Q559 658 538.50 671Q518 684 476 688L476 708Q495 707 526 706Q557 705 584 705Q608 705 631.50 706Q655 707 671 708M446 934Q467 946 491.50 940.50Q516 935 527 912Q537 893 529.50 872Q522 851 499 838Q477 826 450 819.50Q423 813 385 803Q347 793 291 772L284 784Q332 823 358.50 852Q385 881 404 901.50Q423 922 446 934Z"  horiz-adv-x="689" vert-adv-y="1000"  />

      
      </font>
</defs>
</svg>
