<svg width="42" height="42" viewBox="0 0 42 42" fill="none" xmlns="http://www.w3.org/2000/svg">
<g clip-path="url(#clip0_60_19)">
<path d="M21 0C15.43 0 10.09 2.21 6.15 6.15C2.21 10.09 0 15.43 0 21C0 26.57 2.21 31.91 6.15 35.85C10.09 39.79 15.43 42 21 42C26.57 42 31.91 39.79 35.85 35.85C39.79 31.91 42 26.57 42 21C42 17.31 41.03 13.69 39.19 10.5C37.35 7.31 34.7 4.66 31.5 2.81C28.31 0.97 24.69 0 21 0ZM24.59 25.81C25.05 26.35 25.21 27.09 25.01 27.77C24.81 28.45 24.27 28.99 23.59 29.19C22.91 29.39 22.17 29.23 21.63 28.77L15.33 22.47C14.94 22.08 14.72 21.54 14.72 20.99C14.72 20.44 14.94 19.9 15.33 19.51L21.63 13.21C22.01 12.77 22.56 12.5 23.14 12.48C23.73 12.46 24.29 12.68 24.71 13.09C25.12 13.5 25.35 14.07 25.32 14.66C25.3 15.24 25.03 15.79 24.59 16.17L19.76 21L24.59 25.81Z" fill="#071441"/>
</g>
<defs>
<clipPath id="clip0_60_19">
<rect width="42" height="42" fill="white"/>
</clipPath>
</defs>
</svg>
